<?xml version="1.0" encoding="utf-8"?>
<!-- Generator: Adobe Illustrator 23.1.1, SVG Export Plug-In . SVG Version: 6.00 Build 0)  -->
<svg version="1.1" id="Ebene_1" xmlns="http://www.w3.org/2000/svg" xmlns:xlink="http://www.w3.org/1999/xlink" x="0px" y="0px"
	 viewBox="0 0 180 240" style="enable-background:new 0 0 180 240;" xml:space="preserve">
<style type="text/css">
	.st0{clip-path:url(#SVGID_2_);}
	.st1{clip-path:url(#SVGID_4_);fill:#A31834;}
	.st2{clip-path:url(#SVGID_4_);fill:#FFFFFF;}
</style>
<g id="Icon_rot_1_">
	<g>
		<defs>
			<rect id="SVGID_1_" x="-183" y="14" width="398.4" height="377"/>
		</defs>
		<clipPath id="SVGID_2_">
			<use xlink:href="#SVGID_1_"  style="overflow:visible;"/>
		</clipPath>
		<g class="st0">
			<defs>
				<rect id="SVGID_3_" x="-183" y="14" width="398.4" height="377"/>
			</defs>
			<clipPath id="SVGID_4_">
				<use xlink:href="#SVGID_3_"  style="overflow:visible;"/>
			</clipPath>
			<path class="st1" d="M-2.6,374.8h-0.9c-48.2-0.2-93.4-19.2-127.3-53.4c-33.9-34.2-52.5-79.6-52.2-127.8
				C-182.5,94.4-101.7,14-2.6,14c0.3,0,0.6,0,0.8,0c48.2,0.2,93.4,19.2,127.3,53.4c33.9,34.2,52.5,79.6,52.2,127.8
				C177.4,294.4,96.5,374.8-2.6,374.8 M-3.4,362.7c92.6,0.5,168.6-74.7,169.1-167.5c0.2-44.9-17.1-87.3-48.7-119.2
				C85.3,44,43.1,26.3-1.8,26.1c-0.3,0-0.5,0-0.8,0c-92.4,0-167.8,75-168.3,167.5c-0.2,44.9,17.1,87.3,48.7,119.2
				C-90.5,344.8-48.3,362.5-3.4,362.7"/>
			<polygon class="st1" points="129.2,275.7 71.5,159 12.8,275.2 			"/>
			<polygon class="st1" points="-60.1,103 -2.5,219.7 56.3,103.6 			"/>
		</g>
		<g class="st0">
			<defs>
				<rect id="SVGID_5_" x="-183" y="14" width="398.4" height="377"/>
			</defs>
			<clipPath id="SVGID_6_">
				<use xlink:href="#SVGID_5_"  style="overflow:visible;"/>
			</clipPath>
		</g>
	</g>
</g>
</svg>
