<?xml version="1.0" encoding="UTF-8"?><svg id="Ebene_1" xmlns="http://www.w3.org/2000/svg" viewBox="0 0 58 58"><defs><style>.cls-1{fill:#707173;}</style></defs><g id="arrow_carrot_left"><path class="cls-1" d="M29,22.74c-.31,0-.62,.11-.88,.33-.05,.04-.09,.08-.13,.13h0l-9.5,9.5c-.56,.42-.67,1.2-.25,1.76,.07,.1,.16,.18,.25,.25,.27,.29,.65,.46,1.05,.46h.03c.36,0,.71-.17,.93-.46l8.5-8.4,8.5,8.4c.23,.36,.62,.56,1.02,.56,.22,0,.45-.06,.65-.19,.13-.08,.24-.19,.33-.32,.57-.44,.67-1.26,.23-1.82-.07-.09-.15-.16-.23-.23l-9.5-9.5c-.26-.3-.63-.46-1.01-.46h0Z"/></g><path class="cls-1" d="M54.69,3.31V54.69H3.31V3.31H54.69m2.31-2.31H1V57H57V1h0Z"/></svg>