<?xml version="1.0" encoding="UTF-8"?><svg xmlns="http://www.w3.org/2000/svg" viewBox="0 0 500 500"><defs><style>.cls-1{letter-spacing:0em;}.cls-2{letter-spacing:-.02em;}.cls-3{letter-spacing:-.04em;}.cls-4{letter-spacing:0em;}.cls-5,.cls-6{fill:#fff;}.cls-7{fill:#828181;}.cls-8{letter-spacing:-.02em;}.cls-6{font-family:Futura-Boo, Futura;font-size:12.4px;}.cls-9{letter-spacing:0em;}.cls-10{letter-spacing:-.04em;}.cls-11{letter-spacing:-.01em;}.cls-12{letter-spacing:0em;}.cls-13{letter-spacing:0em;}.cls-14{letter-spacing:.03em;}.cls-15{letter-spacing:-.02em;}.cls-16{letter-spacing:0em;}.cls-17{letter-spacing:.06em;}.cls-18{letter-spacing:-.01em;}.cls-19{letter-spacing:0em;}.cls-20{letter-spacing:0em;}.cls-21{letter-spacing:0em;}.cls-22{letter-spacing:-.01em;}.cls-23{letter-spacing:.02em;}</style></defs><g id="BG"><rect class="cls-7" width="500" height="500"/></g><g id="Sujet"><g><g><g><path class="cls-5" d="M99.34,228.1h14.56v.9s-2.69-.67-2.02,2.91l4.48,13.44h.67l3.14-10.31s.22-6.5-4.03-6.27l-.22-.9h13.67v.9s-2.69-.45-2.24,2.46l4.48,13.89h.22l4.93-13.89s1.12-2.91-2.02-2.46v-.9h8.96v1.12s-2.24,.22-3.14,2.46l-8.96,26.66h-4.26l-4.93-16.35h-.67l-6.27,16.35h-3.58l-8.96-26.66s-.9-3.14-3.81-2.46v-.9h0Z"/><path class="cls-5" d="M291.11,228.1h13.89v.67s-2.69,.67-.67,4.48l4.48,12.32h.22s5.15-13.22,5.15-13.44v-1.12c0-.9-.9-1.79-1.79-1.79h-1.12v-1.12h9.41v1.12c-1.57-.22-2.69,.9-3.36,2.24l-10.08,27.11h-4.48l-8.29-24.64s-.9-4.48-3.36-4.48v-1.34h0Z"/><path class="cls-5" d="M145.72,228.1h15.91v1.12s-3.36-.67-3.81,1.79v24.19s.22,2.02,1.79,2.24h2.02v.9h-15.91v-.9h2.24s1.34,0,1.57-1.57v-24.64s.22-2.24-2.02-2.02h-1.79v-1.12h0Z"/><path class="cls-5" d="M409.39,228.1h15.91v1.12s-3.36-.67-3.81,1.79v24.19s.22,2.02,1.79,2.24h2.02v.9h-15.91v-.9h2.24s1.34,0,1.57-1.57v-24.64s.22-2.24-2.02-2.02h-1.79v-1.12h0Z"/><path class="cls-5" d="M162.97,228.1v1.12h2.46s1.57,.45,1.57,1.79v24.87s-.45,1.57-1.57,1.57h-2.24v.9h24.42l1.12-5.82,.45-2.46v-1.12h-.67s-1.79,7.62-6.5,7.62h-5.38s-1.12-.67-1.12-1.79v-10.98h1.79c1.12,0,3.58,2.24,3.58,6.5h1.57v-14.56h-1.57s-.67,6.72-4.03,6.72h-1.57v-12.55h6.05s5.15,.67,5.15,6.5h.67v-8.29h-24.19Z"/><path class="cls-5" d="M224.57,228.1v1.12h2.46s1.57,.45,1.57,1.79v24.87s-.45,1.57-1.57,1.57h-2.24v.9h24.64l1.12-5.82,.45-2.46v-1.12h-.67s-1.79,7.62-6.5,7.62h-5.6s-1.12-.67-1.12-1.79v-10.98h1.79c1.12,0,3.58,2.24,3.58,6.5h1.57v-14.56h-1.57s-.67,6.72-4.03,6.72h-1.57v-12.55h6.05s5.15,.67,5.15,6.5h.67v-8.29h-24.19Z"/><path class="cls-5" d="M322.47,228.1v1.12h2.46s1.57,.45,1.57,1.79v24.87s-.45,1.57-1.57,1.57h-2.24v.9h24.42l1.12-5.82,.45-2.46v-1.12h-.67s-1.79,7.62-6.5,7.62h-5.38s-1.12-.67-1.12-1.79v-10.98h1.79c1.12,0,3.58,2.24,3.58,6.5h1.57v-14.56h-1.57s-.67,6.72-4.03,6.72h-1.57v-12.55h6.05s5.15,.67,5.15,6.5h.67v-8.29h-24.19Z"/><path class="cls-5" d="M383.18,228.1v1.12h2.46s1.57,.45,1.57,1.79v24.87s-.45,1.57-1.57,1.57h-2.24v.9h24.42l1.12-5.82,.45-2.46v-1.12h-.67s-1.79,7.62-6.5,7.62h-5.38s-1.12-.67-1.12-1.79v-10.98h1.79c1.12,0,3.58,2.24,3.58,6.5h1.57v-14.56h-1.57s-.67,6.72-4.03,6.72h-1.57v-12.55h6.05s5.15,.67,5.15,6.5h.67v-8.29h-24.19Z"/><path class="cls-5" d="M283.27,257c-.45,0-1.57-.45-1.79-1.12l-6.94-11.65v-.45c1.79-.45,5.82-3.36,5.82-6.27v-2.91c0-3.81-5.38-6.5-8.29-6.5h-20.16v1.12h1.79c2.24,0,2.24,2.24,2.24,2.24v23.3c-.22,1.57-1.79,2.24-1.79,2.24h-1.79v1.57h15.68v-1.57h-1.79c-1.79,0-2.24-2.24-2.24-2.46v-10.31h1.12l7.39,13.22,.45,.9h11.65v-1.57h-1.34v.22Zm-12.55-19.04c0,2.69-2.46,4.7-4.48,4.7h-2.46v-12.77h3.36c1.79,0,3.58,2.91,3.58,4.7,.22,1.34,.22,2.24,0,3.36Z"/><path class="cls-5" d="M381.17,256.55c-.45,0-1.57-.45-1.79-1.12l-6.94-11.65v-.45c1.79-.45,5.82-3.36,5.82-6.27v-2.91c0-3.81-5.38-6.5-8.29-6.5h-20.16v1.12h1.79c2.24,0,2.24,2.24,2.24,2.24v23.3c-.22,1.57-1.79,2.24-1.79,2.24h-1.79v1.34h15.68v-1.57h-1.79c-1.79,0-2.24-2.24-2.24-2.46v-10.31h1.12l7.39,13.22,.45,.9h11.65v-1.57l-1.34,.45Zm-12.55-19.04c0,2.69-2.46,4.7-4.48,4.7h-2.46v-12.77h3.36c1.79,0,3.58,2.91,3.58,4.7,.22,1.12,.22,2.24,0,3.36Z"/><path class="cls-5" d="M190.75,228.1h11.87l15.01,18.59v-15.68c0-.45-.9-1.79-2.24-1.79h-1.79v-1.12h9.41v1.12h-.67c-.67,0-1.57,.45-1.57,1.57v27.78h-5.82l-17.47-21.73h-.45v17.25c0,1.12,.9,3.36,2.91,3.36h1.12v1.57h-9.41v-1.57c1.79,0,2.46-1.57,2.46-2.24v-22.4c0-2.24-1.79-3.36-2.91-3.36h-.67v-1.34h.22Z"/><path class="cls-5" d="M426.87,228.1h11.87l15.01,18.59v-15.68c0-.45-.9-1.79-2.24-1.79h-1.79v-1.12h9.41v1.12h-.67c-.67,0-1.57,.45-1.57,1.57v27.78h-5.82l-17.47-21.73h-.45v17.25c0,1.12,.9,3.36,2.91,3.36h1.12v1.57h-9.41v-1.57c1.79,0,2.46-1.57,2.46-2.24v-22.4c0-2.24-1.79-3.36-2.91-3.36h-.67v-1.34h.22Z"/></g><path class="cls-5" d="M40.87,222.27v52.2h51.97v-52.2H40.87Zm38.31,27.78l-7.39,18.59h-9.41l-8.06-18.59v-.67h7.39l5.38,12.32,5.15-12.32h6.94v.67h0Zm.9-2.91h-8.06l-4.93-11.65-4.93,11.65h-8.29l-7.39-19.04h7.62l4.26,10.53,4.7-10.53h8.29l4.48,10.53,4.7-10.53h7.39l-7.84,19.04Z"/></g><text class="cls-6" transform="translate(111.11 274.63)"><tspan x="0" y="0">B</tspan><tspan class="cls-2" x="6.4" y="0">E</tspan><tspan class="cls-21" x="11.97" y="0">S</tspan><tspan class="cls-10" x="18.19" y="0">T</tspan><tspan class="cls-3" x="22.77" y="0">A</tspan><tspan class="cls-14" x="29.76" y="0">T</tspan><tspan class="cls-20" x="35.29" y="0">T</tspan><tspan x="40.37" y="0">U</tspan><tspan class="cls-19" x="48.25" y="0">N</tspan><tspan class="cls-18" x="57.61" y="0">G</tspan><tspan class="cls-17" x="66.65" y="0">S</tspan><tspan x="73.64" y="0">- UND </tspan><tspan class="cls-19" x="106.99" y="0">V</tspan><tspan x="113.71" y="0">E</tspan><tspan class="cls-15" x="119.52" y="0">R</tspan><tspan x="125.39" y="0">SI</tspan><tspan class="cls-4" x="134.55" y="0">C</tspan><tspan x="142.46" y="0">HE</tspan><tspan class="cls-11" x="156.34" y="0">R</tspan><tspan class="cls-1" x="162.26" y="0">U</tspan><tspan class="cls-13" x="170.14" y="0">N</tspan><tspan class="cls-22" x="179.5" y="0">G</tspan><tspan class="cls-16" x="188.54" y="0">S</tspan><tspan x="194.74" y="0">SE</tspan><tspan class="cls-8" x="206.8" y="0">R</tspan><tspan class="cls-19" x="212.65" y="0">V</tspan><tspan x="219.37" y="0">ICEG</tspan><tspan class="cls-2" x="245.12" y="0">E</tspan><tspan class="cls-1" x="250.69" y="0">SEL</tspan><tspan class="cls-12" x="267.03" y="0">L</tspan><tspan class="cls-9" x="271.3" y="0">S</tspan><tspan class="cls-4" x="277.43" y="0">C</tspan><tspan class="cls-13" x="285.34" y="0">H</tspan><tspan x="293.42" y="0">A</tspan><tspan class="cls-23" x="300.94" y="0">F</tspan><tspan x="306.39" y="0">T M.B.H.</tspan></text></g></g></svg>