<?xml version="1.0" encoding="UTF-8"?><svg xmlns="http://www.w3.org/2000/svg" viewBox="0 0 500 500"><defs><style>.cls-1{fill:#828181;}.cls-2{fill:#fff;fill-rule:evenodd;}</style></defs><g id="BG"><rect class="cls-1" width="500" height="500"/></g><g id="Sujet"><path class="cls-2" d="M102.12,102.19V397.81H397.88V102.19H102.12Zm131.54,197.49c-18.29,.57-26.32-14.52-26.32-14.52l-24.29-40.61-16.83,28.14h22.03c12.62,1.52,12.66,12.48,12.66,12.48,.8,11.91-11.48,13.63-11.48,13.63h-45.38c-6.62-.99-8.98-5.7-8.98-5.7-4.82-5.84-1.61-13.53-1.61-13.53,0,0,39.93-70.16,40.27-70.69,.51-.83,.84-1.42,1.66-2.42,1.17-1.44,2.84-2.49,4.61-3.16,1.34-.49,2.8-.59,4.19-.28,1.2,.26,2.34,.71,3.4,1.32,1.43,.81,2.6,1.84,3.51,3.21,.57,.86,21.83,36.71,22,37v21.59c1.61,13.57,13.51,14.19,13.51,14.19,8.61,.28,12.43-6.08,12.43-6.08l16.73-28.33c6.14-9.35,5-11.71,5-11.71-.37-7.45-8.93-7.45-8.93-7.45h-12.24v39.38c-.95,13.09-12.14,12.29-12.14,12.29-11.87-1.24-12.43-12.2-12.43-12.2v-56.13c.76-8.64,8.27-8.5,8.27-8.5h31.71c16.36,.38,24.49,10.72,24.49,10.72,12.71,14.52,4.82,32.22,4.82,32.22-5.67,12.1-22.54,40.61-22.54,40.61-12.24,15.76-28.12,14.52-28.12,14.52Zm134.3-15.52c-.57,12.34-12.41,13.58-12.41,13.58h-43.68c-14.31-2.02-12.23-13.58-12.23-13.58,.61-10.91,12-12.43,12-12.43h22.33l-16.71-28.02-9.63,16.21-19.55,32.84c-8.68,9.83-17.99,2.32-17.99,2.32-7.23-6.05-3.35-14.17-3.35-14.17l42.92-74.85c3.31-4.63,8.13-3.99,8.13-3.99,5.34,.07,7.36,3.99,7.36,3.99l39.75,68.67c3.68,5.48,3.07,9.45,3.07,9.45Z"/></g></svg>