<?xml version="1.0" encoding="utf-8"?>
<!-- Generator: Adobe Illustrator 27.1.1, SVG Export Plug-In . SVG Version: 6.00 Build 0)  -->
<svg version="1.1" id="Ebene_1" xmlns="http://www.w3.org/2000/svg" xmlns:xlink="http://www.w3.org/1999/xlink" x="0px" y="0px"
	 viewBox="0 0 60 60" style="enable-background:new 0 0 60 60;" xml:space="preserve">
<style type="text/css">
	.st0{fill:none;}
	.st1{fill:#FFFFFF;}
</style>
<rect y="0" class="st0" width="60" height="60"/>
<g transform="translate(13 13)">
	<path class="st1" d="M35,17.5C35,7.8,27.2,0,17.5,0S0,7.8,0,17.5c0,8.6,6.3,15.9,14.8,17.3V22.6h-4.4v-5.1h4.4v-3.9
		c0-4.4,2.6-6.8,6.6-6.8c1.3,0,2.6,0.1,3.9,0.3v4.3h-2.2c-1.4-0.2-2.7,0.8-2.8,2.2c0,0.2,0,0.4,0,0.6v3.3h4.9l-0.8,5.1h-4.1v12.2
		C28.7,33.4,35,26.1,35,17.5"/>
</g>
</svg>
