<svg xmlns="http://www.w3.org/2000/svg" width="9.322" height="9.563" viewBox="0 0 9.322 9.563">
  <path id="Pfad_7356" data-name="Pfad 7356" d="M10.518-8.3a.633.633,0,0,0-.229-.513A.931.931,0,0,0,9.674-9L2.033-9.006a.921.921,0,0,0-.609.19A.633.633,0,0,0,1.2-8.3a.823.823,0,0,0,.067.331q.067.155.155.343L5.074-.1A1.434,1.434,0,0,0,5.44.416a.665.665,0,0,0,.413.141A.661.661,0,0,0,6.27.416,1.509,1.509,0,0,0,6.639-.1l3.65-7.529q.094-.182.161-.337A.823.823,0,0,0,10.518-8.3ZM9.4-8a.078.078,0,0,1-.009.035.2.2,0,0,0-.015.041L5.924-.756a.117.117,0,0,1-.029.038A.062.062,0,0,1,5.854-.7a.052.052,0,0,1-.038-.015.145.145,0,0,1-.026-.038L2.338-7.928a.322.322,0,0,1-.018-.041A.111.111,0,0,1,2.314-8q0-.059.064-.059l6.949.006Q9.4-8.057,9.4-8Z" transform="translate(-1.195 9.006)" fill="#af0d21"/>
</svg>
