<?xml version="1.0" encoding="utf-8"?>
<!-- Generator: Adobe Illustrator 27.1.1, SVG Export Plug-In . SVG Version: 6.00 Build 0)  -->
<svg version="1.1" id="Ebene_1" xmlns="http://www.w3.org/2000/svg" xmlns:xlink="http://www.w3.org/1999/xlink" x="0px" y="0px"
	 viewBox="0 0 60 60" style="enable-background:new 0 0 60 60;" xml:space="preserve">
<style type="text/css">
	.st0{fill:none;}
	.st1{fill:#FFFFFF;}
</style>
<rect y="0" class="st0" width="60" height="60"/>
<g transform="translate(13 13)">
	<path class="st1" d="M17.5,0c-4.8,0-5.3,0-7.2,0.1C8.8,0.1,7.4,0.4,6,0.9C4.9,1.4,3.8,2,2.9,2.9C2,3.8,1.4,4.9,0.9,6
		c-0.5,1.4-0.8,2.8-0.8,4.2C0,12.2,0,12.7,0,17.5s0,5.3,0.1,7.2c0,1.5,0.3,2.9,0.8,4.2c0.4,1.2,1.1,2.2,2,3.1c0.9,0.9,1.9,1.6,3.1,2
		c1.4,0.5,2.8,0.8,4.2,0.8c1.9,0.1,2.5,0.1,7.2,0.1s5.3,0,7.2-0.1c1.5,0,2.9-0.3,4.2-0.8c2.4-0.9,4.2-2.8,5.1-5.1
		c0.5-1.4,0.8-2.8,0.8-4.2c0.1-1.9,0.1-2.5,0.1-7.2s0-5.3-0.1-7.2c0-1.5-0.3-2.9-0.8-4.2c-0.4-1.2-1.1-2.2-2-3.1
		c-0.9-0.9-1.9-1.6-3.1-2c-1.4-0.5-2.8-0.8-4.2-0.8C22.8,0,22.3,0,17.5,0z M17.5,3.2c4.7,0,5.2,0,7.1,0.1c1.1,0,2.2,0.2,3.2,0.6
		c0.8,0.3,1.4,0.7,2,1.3c0.6,0.6,1,1.3,1.3,2c0.4,1,0.6,2.1,0.6,3.2c0.1,1.8,0.1,2.4,0.1,7.1s0,5.2-0.1,7.1c0,1.1-0.2,2.2-0.6,3.2
		c-0.6,1.5-1.8,2.7-3.3,3.3c-1,0.4-2.1,0.6-3.2,0.6c-1.8,0.1-2.4,0.1-7.1,0.1s-5.2,0-7.1-0.1c-1.1,0-2.2-0.2-3.2-0.6
		c-0.8-0.3-1.4-0.7-2-1.3c-0.6-0.6-1-1.3-1.3-2c-0.4-1-0.6-2.1-0.6-3.2c-0.1-1.8-0.1-2.4-0.1-7.1s0-5.2,0.1-7.1
		c0-1.1,0.2-2.2,0.6-3.2c0.3-0.8,0.7-1.4,1.3-2c0.6-0.6,1.3-1,2-1.3c1-0.4,2.1-0.6,3.2-0.6C12.3,3.2,12.8,3.2,17.5,3.2"/>
	<path class="st1" d="M17.5,23.3c-3.2,0-5.8-2.6-5.8-5.8s2.6-5.8,5.8-5.8s5.8,2.6,5.8,5.8l0,0C23.3,20.7,20.7,23.3,17.5,23.3z
		 M17.5,8.5c-5,0-9,4-9,9s4,9,9,9c5,0,9-4,9-9C26.5,12.5,22.5,8.5,17.5,8.5 M28.9,8.2c0,1.2-0.9,2.1-2.1,2.1s-2.1-0.9-2.1-2.1
		s0.9-2.1,2.1-2.1C28,6.1,28.9,7,28.9,8.2L28.9,8.2"/>
</g>
</svg>
