<?xml version="1.0" encoding="UTF-8"?><svg xmlns="http://www.w3.org/2000/svg" viewBox="0 0 500 500"><defs><style>.cls-1{fill:#fff;}.cls-2{fill:#828181;}</style></defs><g id="BG"><rect class="cls-2" width="500" height="500"/></g><g id="Sujet"><g><path class="cls-1" d="M357.75,358.12c0-.65-.18-1.17-.54-1.58-.36-.4-.93-.61-1.74-.61h-4.23v4.46h3.55c.39,0,.77-.03,1.13-.09,.36-.06,.67-.18,.94-.35,.27-.17,.48-.4,.65-.7,.16-.29,.24-.67,.24-1.14Z"/><path class="cls-1" d="M127.28,269.6l.05,.03c.22,.15,.49,.21,.76,.21,2.07-.05,6-2.9,8.17-4.61,3.59-2.89,6.76-5.7,9.75-8.83,1.32-1.36,2.6-2.78,3.86-4.32,.63-.77,1.31-1.59,1.95-2.46,1.56-1.97,3.16-4.22,3.2-5.7,0-.23-.04-.45-.14-.65l-.04-.08-.07-.05c-.21-.14-.42-.16-.64-.16-.43,0-.93,.13-1.36,.29-8.75,3.27-16.58,10.05-21.91,17.15-1.55,2.1-3.97,5.57-4,7.88,0,.46,.11,.91,.39,1.27l.03,.04Z"/><polygon class="cls-1" points="342.31 356.05 340.14 362.01 344.48 362.01 342.35 356.05 342.31 356.05"/><path class="cls-1" d="M217.02,357.3c-.36-.51-.82-.91-1.38-1.21-.56-.31-1.23-.46-2.01-.46s-1.44,.15-2.01,.46c-.56,.31-1.02,.7-1.38,1.21s-.62,1.06-.79,1.7c-.17,.63-.25,1.27-.25,1.9,0,.65,.08,1.28,.25,1.91,.17,.63,.43,1.19,.79,1.7s.82,.91,1.38,1.2c.56,.31,1.23,.46,2.01,.46s1.44-.15,2.01-.46c.56-.3,1.02-.7,1.38-1.2,.36-.5,.62-1.07,.79-1.7,.17-.63,.25-1.26,.25-1.91s-.08-1.28-.25-1.9c-.17-.63-.43-1.19-.79-1.7Z"/><path class="cls-1" d="M223.84,240.21c5.28-5.26,6.43-12.71,2.57-16.64-3.86-3.93-11.27-2.86-16.55,2.4-5.28,5.26-6.43,12.7-2.57,16.64,3.86,3.93,11.27,2.86,16.55-2.4Z"/><path class="cls-1" d="M101.81,101.81V398.19H398.19V101.81H101.81Zm16.89,165.75c-.02-4.42,3.78-8.95,6.31-12,5.63-6.87,13.15-11.59,21.12-15.73,1.94-1.02,3.91-1.87,6.08-2.78,2.23-.95,5.34-1.7,7.35-3.17,1.75-1.28,3.04-3.53,4.21-5.74,3.39-6.38,8.51-14.76,11.33-21.52l.21-.51h-.55c-1.76,0-10.92,.07-15.71,.9-6.96,1.21-9.23,2.08-10.48,2.34l7.65-14.08c8.18,.07,21.85,.07,23.92,.07h10.42c3.22,0,6.02,.02,9.38,.02-3.8,7.92-7.75,15.87-11.69,23.76-.79,1.59-2.33,4.81-3.96,8.56l-.24,.55,.59-.04c1.86-.12,8.63-.53,8.64-.53h.15l.1-.13s2.88-3.46,4.14-4.83c4.5-4.86,10.13-9.01,19.42-9.01,.77,0,1.56,.03,2.39,.09,4.8,.35,7.75,2.15,11.37,4.24,3.23,1.21,8.81,2.62,14.89,2.71,.08,0,.16,0,.24,0,8.32,0,11.13-6.81,14.25-12.71,2.26-4.28,4.39-8.56,6.12-11.98h19.75c-5.65,12.23-10.82,20.92-16.74,33.04l-.23,.47,.51,.07c.61,.07,1.19,.1,1.75,.1,10.36-.02,13.66-11.6,15.13-14.2,.88,.01,1.77,.02,2.67,.02,4,0,8.03-.12,11.93-.12,1.61,0,3.2,.02,4.76,.08-.81,2.93-2.42,5.58-4.14,7.77-1.83,2.33-4.56,4.25-7.24,5.8-5.35,3.11-9.62,2.83-16.76,3.99l-3.05,.5,3.09,.23c7.14,.53,12.85,1.2,13.81,6.29,.04,.24,.07,.49,.07,.75,0,1.75-1.06,3.84-1.86,5.26-.65,1.19-2.32,3.23-2.36,4.81,0,.18,.03,.37,.09,.55,.29,.86,1.06,1.24,1.83,1.22,1.99-.03,4.69-1.89,5.61-2.43,2.4-1.43,7.54-4.08,7.55-4.09l.21-.11v-.48c-.01-1.45,.21-8.85,4.21-15.12,6.6-10.37,16.86-15.16,25.67-15.45,.36-.01,.72-.02,1.08-.02,7.13,0,12.63,2.39,16.25,6.33l.31,.33,.26-.38c1.26-1.81,2.03-3.66,3.02-5.4h18.17c-7.31,12.87-6.6,13.13-12.71,23.95-4.64,8.23-6.14,12.27-6.04,12.77,.13,.67,.26,1.37,.92,1.89,.66,.53,1.43,.94,3.13,.96,3.87,.03,5.64-3.87,6.14-4.74,1.56-.06,11.78-.49,15.35-.53-7.72,6.68-15.08,11.89-28.09,11.89-7.72-.3-11.18-3.85-11.19-8.15,0-1.02,.2-2.09,.59-3.18l.41-1.16-.98,.73c-4.2,3.16-10.35,9.06-19.57,9.15-5.35-.02-9.19-2-11.7-3.99-2.52-1.98-3.67-3.94-3.68-3.93l-.17-.28-.3,.14s-9.31,4.35-13.97,5.99c-4.21,1.49-8.75,3.35-13.4,3.35-.49,0-.98-.02-1.47-.06-3.63-.31-7.58-2.85-7.95-5.94-.02-.17-.03-.35-.03-.53-.01-2.38,1.95-5.62,2.92-7.57,.6-1.25,2.59-4.71,2.6-6.92,0-.48-.1-.94-.39-1.3-.82-.98-2.19-1.14-3.6-1.14-1,0-2.04,.09-2.98,.13h-.19l-.1,.17c-3.56,5.76-7.88,14.88-11.24,20.84-.93-.01-1.87-.02-2.83-.02-4.62,0-9.53,.14-14.04,.14-.82,0-1.64,0-2.43-.01,1.34-2.71,2.96-5.68,4.3-8.26,4.27-8.24,8.68-16.74,12.78-25.39l.46-.96-.95,.48c-2.3,1.15-4.77,2.72-9.32,2.73-.16,0-.32,0-.48,0-1.5-.04-2.93-.06-4.38-.46l-.52-.14,.06,.54c.17,1.43,.25,2.82,.25,4.18,0,13.76-8.29,23.83-19.4,27.21-2.92,.88-5.8,1.32-8.55,1.32-9.6-.01-17.5-5.24-19.37-15.07-.04-.66-.07-1.34-.07-1.99,0-2.82,.42-5.02,.85-6.52,.42-1.49,.83-2.26,.83-2.26l.28-.53h-.6s-2.63-.05-5.27-.05c-1.53,0-3.05,.01-4.08,.05h-.21l-.1,.18c-5.57,9.69-10.05,20.85-17.74,29.14-7.63,8.24-17.57,15.01-31.24,15.01h-.1c-6.78-.02-13.38-3.91-13.44-10.07v-.1Zm84.49,99.73h-1.77l-2.92-10.75h-.04l-2.96,10.75h-1.77l-3.28-12.79h1.74l2.51,10.64h.04l2.87-10.64h1.84l2.83,10.64h.04l2.59-10.64h1.7l-3.42,12.79Zm16.18-3.88c-.26,.81-.64,1.52-1.15,2.14-.52,.62-1.15,1.11-1.92,1.47-.77,.37-1.66,.55-2.67,.55s-1.9-.18-2.67-.55c-.76-.37-1.4-.85-1.92-1.47-.52-.63-.9-1.34-1.16-2.14s-.39-1.64-.39-2.52,.13-1.71,.39-2.51c.26-.81,.64-1.52,1.16-2.14,.51-.62,1.15-1.12,1.92-1.49,.76-.37,1.66-.56,2.67-.56s1.9,.19,2.67,.56c.76,.37,1.4,.86,1.92,1.49,.51,.62,.9,1.33,1.15,2.14,.26,.8,.39,1.64,.39,2.51s-.13,1.71-.39,2.52Zm12.6,3.88h-1.7v-5.86h-6.74v5.86h-1.7v-12.79h1.7v5.5h6.74v-5.5h1.7v12.79Zm12.98,0h-1.86l-6.68-10.27h-.04v10.27h-1.61v-12.79h1.81l6.74,10.37h.04v-10.37h1.62v12.79Zm11.64,0h-8.88v-12.79h8.83v1.43h-7.13v4.06h6.65v1.44h-6.65v4.42h7.18v1.44Zm12.24,0h-1.87l-6.68-10.27h-.04v10.27h-1.61v-12.79h1.81l6.74,10.37h.03v-10.37h1.62v12.79Zm20.51,0h-1.62v-10.64h-.03l-4,10.64h-1.45l-3.99-10.64h-.04v10.64h-1.61v-12.79h2.33l4.03,10.75,4.05-10.75h2.33v12.79Zm4.6,0h-1.7v-12.79h1.7v12.79Zm11.74-11.36h-4.26v11.36h-1.7v-11.36h-4.27v-1.44h10.23v1.44Zm15.54,10.3c-.94,.9-2.23,1.34-3.87,1.34-.99,0-1.86-.17-2.6-.51-.74-.34-1.35-.81-1.84-1.4-.49-.6-.86-1.3-1.1-2.12-.25-.82-.36-1.69-.36-2.61s.13-1.81,.39-2.62c.26-.83,.65-1.53,1.16-2.14,.5-.61,1.14-1.09,1.9-1.44,.76-.35,1.63-.53,2.61-.53,.67,0,1.3,.09,1.9,.27,.6,.18,1.13,.44,1.6,.79,.47,.35,.86,.78,1.17,1.3,.31,.52,.51,1.12,.61,1.8h-1.7c-.19-.9-.61-1.58-1.26-2.04-.65-.45-1.42-.68-2.32-.68-.76,0-1.42,.14-1.97,.43-.55,.29-.99,.67-1.35,1.15-.35,.49-.61,1.04-.78,1.66-.17,.62-.25,1.27-.25,1.94,0,.73,.09,1.42,.25,2.07,.16,.65,.43,1.22,.78,1.7,.35,.48,.8,.87,1.35,1.15,.55,.29,1.2,.43,1.97,.43,.57,0,1.06-.09,1.5-.28,.43-.19,.81-.44,1.12-.77,.32-.33,.57-.72,.74-1.18,.18-.45,.29-.94,.32-1.47h1.7c-.17,1.62-.72,2.87-1.67,3.77Zm13.92,1.06h-1.7v-5.86h-6.74v5.86h-1.71v-12.79h1.71v5.5h6.74v-5.5h1.7v12.79Zm11.27,0l-1.4-3.85h-5.41l-1.43,3.85h-1.73l4.98-12.79h1.88l5,12.79h-1.88Zm11.59,0c-.12-.13-.2-.31-.25-.54-.04-.22-.07-.48-.08-.75-.01-.28-.03-.58-.04-.91-.01-.32-.05-.64-.11-.95-.05-.31-.11-.61-.18-.89-.07-.28-.18-.53-.34-.74-.15-.21-.36-.38-.61-.5-.25-.13-.58-.19-1-.19h-4.15v5.46h-1.7v-12.79h6.02c1.22,0,2.17,.3,2.86,.9,.69,.6,1.03,1.42,1.03,2.46,0,.77-.18,1.45-.53,2.04-.35,.59-.92,.99-1.7,1.2v.04c.37,.07,.67,.19,.91,.36,.23,.16,.41,.36,.55,.6s.24,.49,.31,.78c.06,.29,.12,.58,.15,.9,.02,.31,.04,.63,.05,.95,0,.32,.04,.64,.09,.95,.04,.31,.12,.61,.21,.88,.09,.28,.22,.53,.4,.74h-1.9Zm16.58,0h-1.61v-10.64h-.04l-4,10.64h-1.45l-3.99-10.64h-.04v10.64h-1.62v-12.79h2.33l4.03,10.75,4.05-10.75h2.33v12.79Zm11.72,0h-8.89v-12.79h8.83v1.43h-7.13v4.06h6.65v1.44h-6.65v4.42h7.19v1.44Zm11.8-24.24H101.88v-1.72H398.11v1.72Z"/><path class="cls-1" d="M338.85,240.22c5.28-5.26,6.43-12.71,2.57-16.64-3.86-3.93-11.27-2.86-16.55,2.4-5.29,5.25-6.43,12.71-2.57,16.64,3.86,3.93,11.27,2.86,16.55-2.4Z"/></g></g></svg>