<?xml version="1.0" encoding="UTF-8"?><svg xmlns="http://www.w3.org/2000/svg" viewBox="0 0 500 500"><defs><style>.cls-1{fill:#fff;}.cls-2{fill:#828181;}</style></defs><g id="BG"><rect class="cls-2" width="500" height="500"/></g><g id="Sujet"><g><path class="cls-1" d="M34.11,269.03h-.17v-38.4h-4.76v39.25h21.41v-2.21c-4.25,1.19-7.31,1.36-16.48,1.36"/><rect class="cls-1" x="58.58" y="230.63" width="4.76" height="39.25"/><g><path class="cls-1" d="M88.32,270.9h.68l2.55-6.29c4.76-11.72,9.35-24.13,13.42-33.98h-2.55c-.34,2.38-4.08,15.63-11.89,33.98h-.17l-14.27-33.98h-4.93l17.16,40.27Z"/><path class="cls-1" d="M138.61,270.56c7.82,0,14.1-3.74,14.1-11.22,0-6.46-4.42-8.67-10.37-11.38l-3.4-1.53c-5.1-2.38-7.82-4.08-7.82-8.67,0-5.27,4.59-7.14,9.52-7.14,4.42,0,7.14,1.87,9.18,3.91v-2.72c-2.04-1.02-5.61-2.04-9.18-2.04-6.97,0-12.91,3.23-12.91,10.03,0,6.12,3.57,8.67,9.01,11.05l3.4,1.53c5.1,2.21,9.18,4.08,9.18,9.69,0,4.76-4.25,7.82-10.54,7.82-5.61,0-9.01-2.04-11.38-4.25v2.72c1.87,.85,6.63,2.21,11.21,2.21"/><path class="cls-1" d="M179.91,269.71h2.38c-.17-3.74-.68-10.71-.68-16.48v-15.29h.17l14.95,27.53h.68l14.61-26.51h.17v30.59h4.76v-39.93h-.68l-17.33,31.27h-.17l-17.5-31.27h-.68v23.62c0,5.61-.34,12.74-.68,16.48"/><path class="cls-1" d="M235.47,268.86h-.68v-18.35c5.61,0,9.01,.17,13.76,.68v-2.21c-4.25,.51-8.16,.51-13.76,.68v-18.18h.17c7.65,0,12.74,.34,16.31,1.36v-2.21h-21.41v39.08h22.6v-2.21c-3.91,1.19-6.97,1.36-16.99,1.36"/><path class="cls-1" d="M262.49,269.71h2.38c-.34-3.74-.68-10.88-.68-16.48v-15.29h.17l14.95,27.53h.68l14.61-26.51h.17v30.59h4.76v-39.93h-.68l-17.33,31.27h-.17l-17.5-31.27h-.68v23.62c0,5.61-.51,12.74-.68,16.48"/><path class="cls-1" d="M349.83,250.17c0-11.72-8.16-20.39-20.05-20.39s-19.71,8.67-19.71,20.39,7.99,20.39,19.71,20.39,20.05-8.5,20.05-20.39m-5.27,0c0,11.72-5.1,19.54-14.78,19.54s-14.61-7.82-14.61-19.54,5.1-19.54,14.61-19.54c9.52,0,14.78,7.99,14.78,19.54"/><path class="cls-1" d="M387.21,240.31c0-6.63-3.91-9.52-13.25-9.52h-13.76v39.08h4.76v-19.37h8.16l10.54,19.2h5.1l-10.03-18.52-.68-1.36c5.78-1.19,9.18-4.42,9.18-9.52m-4.76,0c0,5.61-2.55,9.35-10.2,9.35h-7.14v-18.18h7.82c7.48,0,9.52,3.74,9.52,8.84"/></g><rect class="cls-1" x="398.43" y="230.63" width="4.76" height="39.25"/><g><path class="cls-1" d="M421.71,269.03h-.51v-18.35c5.61,0,9.01,.17,13.76,.68v-2.21c-4.25,.51-8.16,.51-13.76,.68v-18.35h.17c7.65,0,12.74,.34,16.31,1.36v-2.21h-21.41v39.25h22.6v-2.21c-4.08,1.19-7.14,1.36-17.16,1.36"/><path class="cls-1" d="M456.71,270.73c7.82,0,14.1-3.74,14.1-11.22,0-6.46-4.42-8.84-10.37-11.55l-3.4-1.53c-5.1-2.38-7.82-4.08-7.82-8.67,0-5.27,4.59-7.14,9.52-7.14,4.42,0,7.14,1.87,9.18,3.91v-2.72c-2.04-1.02-5.61-2.04-9.18-2.04-6.97,0-12.91,3.23-12.91,10.03,0,6.12,3.57,8.67,9.01,11.22l3.4,1.53c5.1,2.21,9.18,4.08,9.18,9.69,0,4.76-4.25,7.82-10.54,7.82-5.61,0-9.01-2.04-11.38-4.25v2.72c1.87,.85,6.46,2.21,11.22,2.21"/><path class="cls-1" d="M117.03,236.24c1.87,0,3.57-1.53,3.57-3.57,0-1.87-1.53-3.57-3.57-3.57-1.87,0-3.57,1.53-3.57,3.57,.17,2.04,1.7,3.57,3.57,3.57"/></g></g></g></svg>