<?xml version="1.0" encoding="UTF-8" standalone="no"?>
<!DOCTYPE svg PUBLIC "-//W3C//DTD SVG 1.1//EN" "http://www.w3.org/Graphics/SVG/1.1/DTD/svg11.dtd">
<svg width="100%" height="100%" viewBox="0 0 700 200" version="1.1" xmlns="http://www.w3.org/2000/svg" xmlns:xlink="http://www.w3.org/1999/xlink" xml:space="preserve" xmlns:serif="http://www.serif.com/" style="fill-rule:evenodd;clip-rule:evenodd;stroke-linejoin:round;stroke-miterlimit:2;">
    <g transform="matrix(3.33785,0,0,3.33785,8.52651e-14,-11.8796)">
        <path d="M4.946,33.049C4.946,33.429 4.978,33.747 5.041,34.064C5.358,35.364 6.468,36.346 7.863,36.346C9.956,36.346 11.192,34.603 11.192,31.971C11.192,29.498 10.083,27.627 7.927,27.627C6.563,27.627 5.358,28.642 5.041,30.068C4.978,30.322 4.946,30.639 4.946,30.924L4.946,33.049ZM0.126,29.402C0.126,27.373 0.063,25.661 0,24.203L4.185,24.203L4.407,26.358L4.471,26.358C5.612,24.742 7.388,23.853 9.639,23.853C13.032,23.853 16.076,26.802 16.076,31.749C16.076,37.393 12.493,40.056 9.037,40.056C7.166,40.056 5.707,39.295 5.01,38.281L4.946,38.281L4.946,45.986L0.126,45.986L0.126,29.402Z" style="fill:rgb(167,5,50);fill-rule:nonzero;"/>
    </g>
    <g transform="matrix(3.33785,0,0,3.33785,8.52651e-14,-11.8796)">
        <path d="M28.445,32.383C25.909,32.383 23.943,32.985 23.943,34.825C23.943,36.061 24.767,36.664 25.845,36.664C27.019,36.664 28.033,35.871 28.35,34.888C28.414,34.634 28.445,34.349 28.445,34.064L28.445,32.383ZM33.106,35.966C33.106,37.424 33.17,38.851 33.36,39.707L29.016,39.707L28.73,38.154L28.636,38.154C27.621,39.39 26.036,40.056 24.196,40.056C21.058,40.056 19.187,37.773 19.187,35.3C19.187,31.273 22.801,29.371 28.287,29.371L28.287,29.181C28.287,28.356 27.843,27.183 25.465,27.183C23.879,27.183 22.199,27.722 21.184,28.324L20.296,25.249C21.375,24.646 23.499,23.853 26.321,23.853C31.489,23.853 33.106,26.897 33.106,30.544L33.106,35.966Z" style="fill:rgb(167,5,50);fill-rule:nonzero;"/>
    </g>
    <g transform="matrix(3.33785,0,0,3.33785,8.52651e-14,-11.8796)">
        <path d="M38.088,29.307C38.088,27.024 38.056,25.534 37.961,24.203L42.083,24.203L42.273,27.088L42.4,27.088C43.193,24.805 45.064,23.853 46.585,23.853C47.029,23.853 47.252,23.885 47.6,23.949L47.6,28.483C47.188,28.419 46.808,28.356 46.269,28.356C44.493,28.356 43.288,29.276 42.971,30.798C42.908,31.115 42.876,31.463 42.876,31.875L42.876,39.707L38.056,39.707L38.088,29.307Z" style="fill:rgb(167,5,50);fill-rule:nonzero;"/>
    </g>
    <g transform="matrix(3.33785,0,0,3.33785,8.52651e-14,-11.8796)">
        <path d="M59.275,32.383C56.738,32.383 54.772,32.985 54.772,34.825C54.772,36.061 55.597,36.664 56.675,36.664C57.848,36.664 58.863,35.871 59.18,34.888C59.243,34.634 59.275,34.349 59.275,34.064L59.275,32.383ZM63.936,35.966C63.936,37.424 64,38.851 64.189,39.707L59.846,39.707L59.56,38.154L59.465,38.154C58.451,39.39 56.865,40.056 55.026,40.056C51.887,40.056 50.016,37.773 50.016,35.3C50.016,31.273 53.631,29.371 59.116,29.371L59.116,29.181C59.116,28.356 58.672,27.183 56.294,27.183C54.709,27.183 53.028,27.722 52.014,28.324L51.126,25.249C52.204,24.646 54.329,23.853 57.15,23.853C62.319,23.853 63.936,26.897 63.936,30.544L63.936,35.966Z" style="fill:rgb(167,5,50);fill-rule:nonzero;"/>
    </g>
    <g transform="matrix(3.33785,0,0,3.33785,8.52651e-14,-11.8796)">
        <path d="M73.706,33.049C73.706,33.429 73.737,33.747 73.801,34.064C74.118,35.364 75.228,36.346 76.623,36.346C78.715,36.346 79.952,34.603 79.952,31.971C79.952,29.498 78.842,27.627 76.686,27.627C75.322,27.627 74.118,28.642 73.801,30.068C73.737,30.322 73.706,30.639 73.706,30.924L73.706,33.049ZM68.886,29.402C68.886,27.373 68.822,25.661 68.759,24.203L72.944,24.203L73.167,26.358L73.23,26.358C74.371,24.742 76.147,23.853 78.398,23.853C81.791,23.853 84.835,26.802 84.835,31.749C84.835,37.393 81.252,40.056 77.796,40.056C75.925,40.056 74.466,39.295 73.769,38.281L73.706,38.281L73.706,45.986L68.886,45.986L68.886,29.402Z" style="fill:rgb(167,5,50);fill-rule:nonzero;"/>
    </g>
    <g transform="matrix(3.33785,0,0,3.33785,8.52651e-14,-11.8796)">
        <path d="M97.205,32.383C94.668,32.383 92.702,32.985 92.702,34.825C92.702,36.061 93.526,36.664 94.605,36.664C95.778,36.664 96.793,35.871 97.109,34.888C97.173,34.634 97.205,34.349 97.205,34.064L97.205,32.383ZM101.866,35.966C101.866,37.424 101.93,38.851 102.12,39.707L97.775,39.707L97.49,38.154L97.395,38.154C96.38,39.39 94.795,40.056 92.956,40.056C89.816,40.056 87.946,37.773 87.946,35.3C87.946,31.273 91.561,29.371 97.046,29.371L97.046,29.181C97.046,28.356 96.602,27.183 94.224,27.183C92.639,27.183 90.958,27.722 89.943,28.324L89.056,25.249C90.134,24.646 92.258,23.853 95.08,23.853C100.249,23.853 101.866,26.897 101.866,30.544L101.866,35.966Z" style="fill:rgb(167,5,50);fill-rule:nonzero;"/>
    </g>
    <g transform="matrix(3.33785,0,0,3.33785,8.52651e-14,-11.8796)">
        <path d="M112.083,19.985L112.083,24.203L115.539,24.203L115.539,27.754L112.083,27.754L112.083,33.397C112.083,35.268 112.559,36.124 113.985,36.124C114.651,36.124 114.968,36.093 115.412,35.998L115.444,39.644C114.841,39.866 113.668,40.056 112.336,40.056C110.783,40.056 109.483,39.517 108.69,38.724C107.802,37.805 107.358,36.315 107.358,34.126L107.358,27.754L105.297,27.754L105.297,24.203L107.358,24.203L107.358,21.285L112.083,19.985Z" style="fill:rgb(167,5,50);fill-rule:nonzero;"/>
    </g>
    <g transform="matrix(3.33785,0,0,3.33785,8.52651e-14,-11.8796)">
        <path d="M119.917,39.707L119.917,24.203L124.737,24.203L124.737,39.707L119.917,39.707ZM122.295,22.173C120.678,22.173 119.632,21.032 119.632,19.605C119.632,18.146 120.71,17.037 122.358,17.037C124.007,17.037 125.022,18.146 125.054,19.605C125.054,21.032 124.007,22.173 122.327,22.173L122.295,22.173Z" style="fill:rgb(167,5,50);fill-rule:nonzero;"/>
    </g>
    <g transform="matrix(3.33785,0,0,3.33785,8.52651e-14,-11.8796)">
        <path d="M135.583,19.985L135.583,24.203L139.039,24.203L139.039,27.754L135.583,27.754L135.583,33.397C135.583,35.268 136.059,36.124 137.485,36.124C138.151,36.124 138.468,36.093 138.912,35.998L138.944,39.644C138.341,39.866 137.168,40.056 135.836,40.056C134.283,40.056 132.983,39.517 132.19,38.724C131.302,37.805 130.858,36.315 130.858,34.126L130.858,27.754L128.797,27.754L128.797,24.203L130.858,24.203L130.858,21.285L135.583,19.985Z" style="fill:rgb(167,5,50);fill-rule:nonzero;"/>
    </g>
    <g transform="matrix(3.33785,0,0,3.33785,8.52651e-14,-11.8796)">
        <path d="M142.909,35.522C143.797,36.061 145.636,36.664 147.063,36.664C148.522,36.664 149.124,36.188 149.124,35.395C149.124,34.571 148.648,34.19 146.873,33.588C143.639,32.541 142.402,30.766 142.434,28.958C142.434,26.041 144.907,23.853 148.744,23.853C150.551,23.853 152.136,24.297 153.087,24.773L152.263,28.071C151.566,27.722 150.202,27.215 148.902,27.215C147.729,27.215 147.063,27.69 147.063,28.451C147.063,29.212 147.666,29.593 149.568,30.259C152.517,31.242 153.721,32.764 153.753,35.015C153.753,37.932 151.502,40.056 147.063,40.056C145.034,40.056 143.227,39.581 142.053,38.947L142.909,35.522Z" style="fill:rgb(167,5,50);fill-rule:nonzero;"/>
    </g>
    <g transform="matrix(3.33785,0,0,3.33785,8.52651e-14,-11.8796)">
        <path d="M162.645,41.183C162.645,41.451 162.667,41.741 162.735,41.987C163.07,43.348 164.275,44.286 165.659,44.286C167.735,44.286 168.941,42.589 168.941,40.111C168.941,37.946 167.825,36.093 165.749,36.093C164.409,36.093 163.136,37.031 162.757,38.504C162.712,38.772 162.645,39.062 162.645,39.308L162.645,41.183ZM160.681,38.303C160.681,36.919 160.659,35.803 160.591,34.776L162.355,34.776L162.466,36.628L162.511,36.628C163.292,35.29 164.587,34.531 166.329,34.531C168.963,34.531 170.927,36.741 170.927,40.022C170.927,43.907 168.539,45.826 166.016,45.826C164.565,45.826 163.337,45.201 162.69,44.129L162.645,44.129L162.645,50L160.681,50L160.681,38.303Z" style="fill:rgb(167,5,50);fill-rule:nonzero;"/>
    </g>
    <g transform="matrix(3.33785,0,0,3.33785,8.52651e-14,-11.8796)">
        <path d="M180.59,39.107C180.612,37.879 180.077,35.915 177.889,35.915C175.879,35.915 175.032,37.745 174.875,39.107L180.59,39.107ZM174.853,40.513C174.897,43.169 176.572,44.263 178.536,44.263C179.943,44.263 180.813,44.018 181.528,43.728L181.884,45.112C181.193,45.424 179.987,45.804 178.268,45.804C174.964,45.804 172.956,43.594 172.956,40.357C172.956,37.076 174.897,34.508 178.045,34.508C181.572,34.508 182.488,37.611 182.488,39.598C182.488,39.999 182.465,40.312 182.42,40.536L174.853,40.513Z" style="fill:rgb(167,5,50);fill-rule:nonzero;"/>
    </g>
    <g transform="matrix(3.33785,0,0,3.33785,8.52651e-14,-11.8796)">
        <path d="M187.619,32.186L187.619,34.776L190.431,34.776L190.431,36.272L187.619,36.272L187.619,42.098C187.619,43.437 187.998,44.197 189.092,44.197C189.627,44.197 189.94,44.152 190.23,44.063L190.32,45.558C189.94,45.692 189.337,45.826 188.579,45.826C187.664,45.826 186.926,45.513 186.458,45C185.922,44.397 185.699,43.437 185.699,42.165L185.699,36.272L184.024,36.272L184.024,34.776L185.699,34.776L185.699,32.789L187.619,32.186Z" style="fill:rgb(167,5,50);fill-rule:nonzero;"/>
    </g>
    <g transform="matrix(3.33785,0,0,3.33785,8.52651e-14,-11.8796)">
        <path d="M199.697,39.107C199.718,37.879 199.183,35.915 196.996,35.915C194.986,35.915 194.138,37.745 193.982,39.107L199.697,39.107ZM193.959,40.513C194.003,43.169 195.678,44.263 197.643,44.263C199.049,44.263 199.919,44.018 200.634,43.728L200.991,45.112C200.299,45.424 199.093,45.804 197.375,45.804C194.071,45.804 192.062,43.594 192.062,40.357C192.062,37.076 194.003,34.508 197.152,34.508C200.678,34.508 201.594,37.611 201.594,39.598C201.594,39.999 201.572,40.312 201.527,40.536L193.959,40.513Z" style="fill:rgb(167,5,50);fill-rule:nonzero;"/>
    </g>
    <g transform="matrix(3.33785,0,0,3.33785,8.52651e-14,-11.8796)">
        <path d="M204.381,38.147C204.381,36.874 204.359,35.781 204.292,34.776L206.01,34.776L206.1,36.897L206.167,36.897C206.658,35.446 207.864,34.531 209.18,34.531C209.381,34.531 209.538,34.552 209.716,34.597L209.716,36.428C209.493,36.406 209.292,36.383 209.024,36.383C207.64,36.383 206.658,37.432 206.39,38.883C206.345,39.173 206.323,39.486 206.323,39.821L206.323,45.581L204.359,45.581L204.381,38.147Z" style="fill:rgb(167,5,50);fill-rule:nonzero;"/>
    </g>
</svg>
