<?xml version="1.0" encoding="UTF-8"?><svg id="Ebene_1" xmlns="http://www.w3.org/2000/svg" viewBox="0 0 600 140"><path d="M185.31,59.01c0,.73,.07,1.46,.2,2.12,1.13,4.05,4.58,6.83,8.75,6.83,6.17,0,9.75-4.97,9.75-12.33,0-6.5-3.32-12-9.55-12-3.98,0-7.69,2.79-8.82,7.16-.2,.73-.33,1.53-.33,2.45v5.77Zm-5.84-34.21h5.84v20.09h.13c2.06-3.58,5.77-5.83,10.94-5.83,7.96,0,13.53,6.63,13.53,16.31,0,11.54-7.3,17.24-14.46,17.24-4.64,0-8.29-1.79-10.74-6.03h-.13l-.33,5.31h-5.04c.2-2.19,.27-5.44,.27-8.29V24.8Z" fill="#8a8c8e"/><path d="M244.26,52.65c.07-3.65-1.53-9.48-8.02-9.48-5.97,0-8.49,5.44-8.95,9.48h16.98Zm-17.04,4.18c.13,7.89,5.11,11.14,10.94,11.14,4.18,0,6.77-.73,8.89-1.59l1.06,4.11c-2.06,.93-5.64,2.06-10.74,2.06-9.82,0-15.78-6.56-15.78-16.18s5.77-17.37,15.12-17.37c10.48,0,13.2,9.21,13.2,15.11,0,1.19-.07,2.12-.2,2.78l-22.48-.07Z" fill="#8a8c8e"/><path d="M283.65,65.97c1.79,1.06,4.84,2.25,7.76,2.25,4.18,0,6.17-2.05,6.17-4.77s-1.66-4.31-5.9-5.9c-5.84-2.12-8.56-5.24-8.56-9.08,0-5.17,4.24-9.41,11.08-9.41,3.25,0,6.1,.86,7.83,1.99l-1.39,4.18c-1.26-.73-3.58-1.86-6.57-1.86-3.45,0-5.31,1.99-5.31,4.38,0,2.72,1.86,3.91,6.04,5.5,5.5,2.06,8.42,4.84,8.42,9.68,0,5.7-4.44,9.68-11.94,9.68-3.52,0-6.76-.93-9.02-2.25l1.39-4.38Z" fill="#8a8c8e"/><path d="M324.37,32.1v7.69h8.36v4.44h-8.36v17.3c0,3.98,1.13,6.23,4.38,6.23,1.59,0,2.52-.13,3.38-.4l.27,4.44c-1.13,.4-2.92,.8-5.17,.8-2.72,0-4.91-.93-6.3-2.45-1.59-1.79-2.26-4.64-2.26-8.42v-17.5h-4.97v-4.44h4.97v-5.9l5.7-1.79Z" fill="#8a8c8e"/><path d="M362.83,55.5c-6.37-.13-13.6,.99-13.6,7.23,0,3.84,2.52,5.57,5.44,5.57,4.24,0,6.96-2.65,7.89-5.37,.2-.6,.27-1.26,.27-1.86v-5.57Zm5.7,8.68c0,2.78,.13,5.5,.46,7.69h-5.24l-.53-4.05h-.2c-1.72,2.52-5.24,4.77-9.82,4.77-6.5,0-9.82-4.57-9.82-9.21,0-7.76,6.9-12,19.3-11.93v-.66c0-2.65-.73-7.49-7.29-7.43-3.05,0-6.17,.86-8.42,2.39l-1.33-3.91c2.65-1.66,6.57-2.79,10.61-2.79,9.88,0,12.27,6.7,12.27,13.13v12Z" fill="#8a8c8e"/><path d="M391.28,32.1v7.69h8.36v4.44h-8.36v17.3c0,3.98,1.13,6.23,4.38,6.23,1.59,0,2.52-.13,3.38-.4l.27,4.44c-1.13,.4-2.92,.8-5.17,.8-2.72,0-4.91-.93-6.3-2.45-1.59-1.79-2.25-4.64-2.25-8.42v-17.5h-4.97v-4.44h4.97v-5.9l5.7-1.79Z" fill="#8a8c8e"/><path d="M419.86,32.1v7.69h8.36v4.44h-8.36v17.3c0,3.98,1.13,6.23,4.38,6.23,1.59,0,2.52-.13,3.38-.4l.27,4.44c-1.13,.4-2.92,.8-5.17,.8-2.72,0-4.91-.93-6.3-2.45-1.59-1.79-2.25-4.64-2.25-8.42v-17.5h-4.97v-4.44h4.97v-5.9l5.7-1.79Z" fill="#8a8c8e"/><path d="M468.27,63.12c0,3.32,.07,6.23,.27,8.75h-5.17l-.33-5.24h-.13c-1.46,2.59-4.91,5.97-10.61,5.97-5.04,0-11.08-2.85-11.08-14.05v-18.76h5.84v17.7c0,6.1,1.92,10.28,7.16,10.28,3.91,0,6.63-2.72,7.69-5.37,.33-.8,.53-1.86,.53-2.98v-19.62h5.84v23.34Z" fill="#8a8c8e"/><path d="M484.58,48.47c0-3.38-.07-6.03-.27-8.68h5.17l.33,5.24h.13c1.59-2.98,5.31-5.97,10.61-5.97,4.44,0,11.34,2.65,11.34,13.66v19.16h-5.84v-18.5c0-5.17-1.92-9.55-7.43-9.55-3.78,0-6.76,2.72-7.83,5.97-.27,.73-.4,1.79-.4,2.72v19.36h-5.84v-23.4Z" fill="#8a8c8e"/><path d="M549.63,52.38c0-.93-.07-1.79-.33-2.59-1.06-3.45-3.85-6.23-8.16-6.23-5.57,0-9.55,4.71-9.55,12.2,0,6.23,3.25,11.53,9.48,11.53,3.65,0,6.9-2.25,8.09-6.03,.33-.93,.46-2.05,.46-3.12v-5.77Zm5.84,14.78c0,7.43-1.53,11.87-4.58,14.72-3.18,2.85-7.69,3.85-11.74,3.85s-8.09-.93-10.68-2.65l1.46-4.51c2.12,1.39,5.44,2.58,9.42,2.58,5.97,0,10.35-3.11,10.35-11.27v-3.51h-.13c-1.72,2.98-5.24,5.37-10.21,5.37-7.96,0-13.66-6.76-13.66-15.71,0-10.87,7.1-16.97,14.52-16.97,5.57,0,8.56,2.85,10.01,5.5h.13l.2-4.77h5.17c-.2,2.25-.27,4.84-.27,8.75v18.63Z" fill="#8a8c8e"/><path d="M53.25,84.42c0,.69,.06,1.27,.17,1.84,.58,2.36,2.59,4.14,5.12,4.14,3.8,0,6.04-3.16,6.04-7.94,0-4.49-2.01-7.89-5.93-7.89-2.48,0-4.66,1.84-5.24,4.43-.11,.46-.17,1.04-.17,1.55v3.86Zm-8.75-6.62c0-3.68-.11-6.79-.23-9.44h7.6l.4,3.91h.12c2.07-2.93,5.3-4.55,9.38-4.55,6.16,0,11.69,5.35,11.69,14.34,0,10.25-6.51,15.08-12.78,15.08-3.4,0-6.05-1.38-7.31-3.22h-.12v13.99h-8.75v-30.11Z" fill="#a70532"/><path d="M95.91,83.21c-4.6,0-8.17,1.09-8.17,4.43,0,2.24,1.5,3.34,3.45,3.34,2.13,0,3.97-1.44,4.55-3.22,.12-.46,.17-.98,.17-1.5v-3.05Zm8.46,6.51c0,2.65,.12,5.24,.46,6.79h-7.89l-.52-2.82h-.17c-1.84,2.24-4.72,3.45-8.06,3.45-5.7,0-9.09-4.15-9.09-8.64,0-7.31,6.56-10.76,16.52-10.76v-.34c0-1.5-.81-3.63-5.12-3.63-2.88,0-5.93,.98-7.77,2.07l-1.61-5.58c1.96-1.09,5.82-2.53,10.94-2.53,9.38,0,12.32,5.53,12.32,12.15v9.84Z" fill="#a70532"/><path d="M113.42,77.63c0-4.15-.06-6.85-.23-9.27h7.48l.34,5.24h.23c1.44-4.15,4.84-5.87,7.6-5.87,.81,0,1.21,.06,1.84,.17v8.23c-.75-.12-1.44-.23-2.42-.23-3.22,0-5.41,1.67-5.99,4.43-.11,.58-.17,1.21-.17,1.96v14.22h-8.75l.06-18.88Z" fill="#a70532"/><path d="M151.89,83.21c-4.61,0-8.18,1.09-8.18,4.43,0,2.24,1.5,3.34,3.46,3.34,2.13,0,3.97-1.44,4.55-3.22,.11-.46,.17-.98,.17-1.5v-3.05Zm8.46,6.51c0,2.65,.12,5.24,.46,6.79h-7.89l-.52-2.82h-.17c-1.84,2.24-4.72,3.45-8.06,3.45-5.7,0-9.1-4.15-9.1-8.64,0-7.31,6.56-10.76,16.52-10.76v-.34c0-1.5-.81-3.63-5.12-3.63-2.88,0-5.93,.98-7.77,2.07l-1.61-5.58c1.96-1.09,5.82-2.53,10.94-2.53,9.38,0,12.32,5.53,12.32,12.15v9.84Z" fill="#a70532"/><path d="M178.09,84.42c0,.69,.06,1.27,.17,1.84,.58,2.36,2.59,4.14,5.12,4.14,3.8,0,6.04-3.16,6.04-7.94,0-4.49-2.02-7.89-5.93-7.89-2.48,0-4.66,1.84-5.24,4.43-.12,.46-.17,1.04-.17,1.55v3.86Zm-8.75-6.62c0-3.68-.12-6.79-.23-9.44h7.6l.4,3.91h.11c2.07-2.93,5.3-4.55,9.38-4.55,6.16,0,11.69,5.35,11.69,14.34,0,10.25-6.51,15.08-12.78,15.08-3.4,0-6.05-1.38-7.31-3.22h-.11v13.99h-8.75v-30.11Z" fill="#a70532"/><path d="M220.75,83.21c-4.61,0-8.18,1.09-8.18,4.43,0,2.24,1.5,3.34,3.46,3.34,2.13,0,3.97-1.44,4.55-3.22,.12-.46,.17-.98,.17-1.5v-3.05Zm8.46,6.51c0,2.65,.12,5.24,.46,6.79h-7.89l-.52-2.82h-.17c-1.84,2.24-4.72,3.45-8.06,3.45-5.7,0-9.1-4.15-9.1-8.64,0-7.31,6.56-10.76,16.52-10.76v-.34c0-1.5-.81-3.63-5.12-3.63-2.88,0-5.93,.98-7.77,2.07l-1.61-5.58c1.96-1.09,5.81-2.53,10.94-2.53,9.38,0,12.32,5.53,12.32,12.15v9.84Z" fill="#a70532"/><path d="M247.77,60.7v7.66h6.27v6.45h-6.27v10.25c0,3.4,.86,4.95,3.45,4.95,1.21,0,1.78-.06,2.59-.23l.06,6.62c-1.09,.4-3.22,.75-5.64,.75-2.82,0-5.18-.98-6.62-2.42-1.61-1.67-2.42-4.37-2.42-8.35v-11.57h-3.74v-6.45h3.74v-5.3l8.58-2.36Z" fill="#a70532"/><path d="M261.99,96.51v-28.15h8.75v28.15h-8.75Zm4.32-31.83c-2.94,0-4.83-2.07-4.83-4.66s1.96-4.66,4.95-4.66,4.84,2.01,4.89,4.66c0,2.59-1.9,4.66-4.95,4.66h-.06Z" fill="#a70532"/><path d="M290.43,60.7v7.66h6.27v6.45h-6.27v10.25c0,3.4,.86,4.95,3.45,4.95,1.21,0,1.78-.06,2.59-.23l.06,6.62c-1.09,.4-3.22,.75-5.64,.75-2.82,0-5.18-.98-6.62-2.42-1.61-1.67-2.42-4.37-2.42-8.35v-11.57h-3.74v-6.45h3.74v-5.3l8.58-2.36Z" fill="#a70532"/><path d="M303.73,88.91c1.61,.98,4.95,2.07,7.54,2.07s3.74-.86,3.74-2.3-.86-2.19-4.09-3.28c-5.87-1.9-8.12-5.12-8.06-8.41,0-5.3,4.49-9.27,11.46-9.27,3.28,0,6.16,.81,7.89,1.67l-1.5,5.99c-1.27-.63-3.74-1.55-6.1-1.55-2.13,0-3.34,.86-3.34,2.24s1.09,2.07,4.55,3.28c5.35,1.78,7.54,4.55,7.6,8.64,0,5.3-4.09,9.15-12.15,9.15-3.68,0-6.96-.86-9.1-2.01l1.55-6.22Z" fill="#a70532"/><path d="M339.57,99.19c0,.49,.04,1.01,.16,1.46,.61,2.47,2.8,4.17,5.31,4.17,3.77,0,5.96-3.08,5.96-7.58,0-3.93-2.03-7.3-5.8-7.3-2.43,0-4.74,1.7-5.43,4.38-.08,.49-.2,1.01-.2,1.46v3.4Zm-3.57-5.23c0-2.51-.04-4.54-.16-6.4h3.2l.2,3.36h.08c1.42-2.43,3.77-3.81,6.93-3.81,4.78,0,8.35,4.01,8.35,9.97,0,7.05-4.34,10.54-8.92,10.54-2.63,0-4.86-1.13-6.04-3.08h-.08v10.66h-3.57v-21.24Z" fill="#a70532"/><path d="M372.15,95.42c.04-2.23-.93-5.8-4.9-5.8-3.65,0-5.19,3.32-5.47,5.8h10.38Zm-10.42,2.55c.08,4.82,3.12,6.81,6.69,6.81,2.55,0,4.13-.44,5.43-.97l.65,2.51c-1.25,.57-3.44,1.26-6.57,1.26-6,0-9.64-4.01-9.64-9.89s3.52-10.62,9.24-10.62c6.4,0,8.07,5.63,8.07,9.24,0,.73-.04,1.3-.12,1.7l-13.74-.04Z" fill="#a70532"/><path d="M384.91,82.85v4.7h5.11v2.72h-5.11v10.58c0,2.43,.69,3.81,2.67,3.81,.97,0,1.54-.08,2.07-.24l.16,2.71c-.69,.24-1.78,.49-3.16,.49-1.66,0-3-.57-3.85-1.5-.97-1.09-1.38-2.84-1.38-5.15v-10.7h-3.04v-2.72h3.04v-3.61l3.49-1.09Z" fill="#a70532"/><path d="M406.84,95.42c.04-2.23-.93-5.8-4.9-5.8-3.65,0-5.19,3.32-5.47,5.8h10.38Zm-10.42,2.55c.08,4.82,3.12,6.81,6.69,6.81,2.55,0,4.13-.44,5.43-.97l.65,2.51c-1.26,.57-3.45,1.26-6.57,1.26-6,0-9.65-4.01-9.65-9.89s3.52-10.62,9.24-10.62c6.4,0,8.06,5.63,8.06,9.24,0,.73-.04,1.3-.12,1.7l-13.74-.04Z" fill="#a70532"/><path d="M415.34,93.68c0-2.31-.04-4.3-.16-6.12h3.12l.16,3.85h.12c.89-2.63,3.08-4.3,5.47-4.3,.36,0,.65,.04,.97,.12v3.32c-.4-.04-.77-.08-1.26-.08-2.51,0-4.3,1.9-4.78,4.54-.08,.53-.12,1.09-.12,1.7v10.46h-3.57l.04-13.5Z" fill="#a70532"/></svg>