<?xml version="1.0" encoding="UTF-8" standalone="no"?>
<!DOCTYPE svg PUBLIC "-//W3C//DTD SVG 1.1//EN" "http://www.w3.org/Graphics/SVG/1.1/DTD/svg11.dtd">
<svg width="100%" height="100%" viewBox="0 0 1175 209" version="1.1" xmlns="http://www.w3.org/2000/svg" xmlns:xlink="http://www.w3.org/1999/xlink" xml:space="preserve" xmlns:serif="http://www.serif.com/" style="fill-rule:evenodd;clip-rule:evenodd;stroke-linejoin:round;stroke-miterlimit:2;">
    <g transform="matrix(4.16667,0,0,4.16667,0,0)">
        <path d="M77.684,19.055C77.684,19.457 77.721,19.858 77.793,20.223C78.415,22.451 80.314,23.984 82.615,23.984C86.013,23.984 87.985,21.246 87.985,17.193C87.985,13.614 86.159,10.583 82.725,10.583C80.533,10.583 78.488,12.117 77.867,14.527C77.757,14.929 77.684,15.367 77.684,15.878L77.684,19.055ZM74.469,0.213L77.684,0.213L77.684,11.277L77.757,11.277C78.89,9.306 80.935,8.064 83.784,8.064C88.168,8.064 91.236,11.715 91.236,17.046C91.236,23.4 87.218,26.54 83.273,26.54C80.716,26.54 78.707,25.554 77.356,23.217L77.282,23.217L77.1,26.139L74.323,26.139C74.433,24.934 74.469,23.145 74.469,21.574L74.469,0.213Z" style="fill:rgb(138,140,142);fill-rule:nonzero;"/>
        <path d="M110.154,15.549C110.191,13.541 109.314,10.328 105.734,10.328C102.446,10.328 101.058,13.322 100.803,15.549L110.154,15.549ZM100.766,17.85C100.839,22.195 103.579,23.984 106.793,23.984C109.095,23.984 110.52,23.582 111.688,23.108L112.273,25.372C111.141,25.883 109.168,26.504 106.355,26.504C100.949,26.504 97.661,22.889 97.661,17.594C97.661,12.227 100.839,8.028 105.99,8.028C111.761,8.028 113.259,13.103 113.259,16.353C113.259,17.01 113.223,17.521 113.149,17.886L100.766,17.85Z" style="fill:rgb(138,140,142);fill-rule:nonzero;"/>
        <path d="M131.847,22.889C132.833,23.473 134.513,24.13 136.121,24.13C138.422,24.13 139.518,22.999 139.518,21.501C139.518,19.968 138.604,19.128 136.267,18.251C133.052,17.083 131.554,15.367 131.554,13.249C131.554,10.401 133.892,8.064 137.655,8.064C139.445,8.064 141.015,8.539 141.965,9.16L141.198,11.46C140.504,11.058 139.226,10.437 137.582,10.437C135.682,10.437 134.659,11.533 134.659,12.848C134.659,14.345 135.682,15.002 137.983,15.878C141.015,17.01 142.623,18.543 142.623,21.209C142.623,24.35 140.175,26.54 136.047,26.54C134.111,26.54 132.321,26.029 131.08,25.299L131.847,22.889Z" style="fill:rgb(138,140,142);fill-rule:nonzero;"/>
        <path d="M154.273,4.23L154.273,8.466L158.875,8.466L158.875,10.912L154.273,10.912L154.273,20.442C154.273,22.633 154.894,23.875 156.684,23.875C157.56,23.875 158.072,23.802 158.546,23.656L158.693,26.102C158.072,26.321 157.085,26.54 155.843,26.54C154.346,26.54 153.14,26.029 152.374,25.189C151.497,24.204 151.131,22.633 151.131,20.552L151.131,10.912L148.391,10.912L148.391,8.466L151.131,8.466L151.131,5.216L154.273,4.23Z" style="fill:rgb(138,140,142);fill-rule:nonzero;"/>
        <path d="M175.457,17.12C171.95,17.046 167.968,17.667 167.968,21.1C167.968,23.217 169.356,24.167 170.963,24.167C173.301,24.167 174.799,22.707 175.311,21.209C175.42,20.88 175.457,20.516 175.457,20.187L175.457,17.12ZM178.598,21.903C178.598,23.436 178.671,24.934 178.854,26.139L175.968,26.139L175.676,23.911L175.566,23.911C174.617,25.299 172.68,26.54 170.16,26.54C166.581,26.54 164.753,24.021 164.753,21.465C164.753,17.193 168.552,14.856 175.383,14.892L175.383,14.527C175.383,13.066 174.982,10.401 171.366,10.437C169.685,10.437 167.968,10.912 166.726,11.752L165.996,9.598C167.457,8.685 169.612,8.064 171.84,8.064C177.284,8.064 178.598,11.752 178.598,15.294L178.598,21.903Z" style="fill:rgb(138,140,142);fill-rule:nonzero;"/>
        <path d="M191.127,4.23L191.127,8.466L195.73,8.466L195.73,10.912L191.127,10.912L191.127,20.442C191.127,22.633 191.749,23.875 193.539,23.875C194.415,23.875 194.926,23.802 195.401,23.656L195.547,26.102C194.926,26.321 193.94,26.54 192.698,26.54C191.201,26.54 189.995,26.029 189.228,25.189C188.351,24.204 187.986,22.633 187.986,20.552L187.986,10.912L185.246,10.912L185.246,8.466L187.986,8.466L187.986,5.216L191.127,4.23Z" style="fill:rgb(138,140,142);fill-rule:nonzero;"/>
        <path d="M206.869,4.23L206.869,8.466L211.471,8.466L211.471,10.912L206.869,10.912L206.869,20.442C206.869,22.633 207.49,23.875 209.28,23.875C210.156,23.875 210.667,23.802 211.142,23.656L211.289,26.102C210.667,26.321 209.681,26.54 208.439,26.54C206.942,26.54 205.736,26.029 204.969,25.189C204.092,24.204 203.727,22.633 203.727,20.552L203.727,10.912L200.987,10.912L200.987,8.466L203.727,8.466L203.727,5.216L206.869,4.23Z" style="fill:rgb(138,140,142);fill-rule:nonzero;"/>
        <path d="M233.532,21.319C233.532,23.145 233.569,24.751 233.678,26.139L230.829,26.139L230.646,23.254L230.573,23.254C229.769,24.678 227.87,26.54 224.728,26.54C221.952,26.54 218.627,24.97 218.627,18.799L218.627,8.466L221.842,8.466L221.842,18.215C221.842,21.574 222.902,23.875 225.788,23.875C227.943,23.875 229.441,22.378 230.025,20.917C230.208,20.479 230.317,19.895 230.317,19.274L230.317,8.466L233.532,8.466L233.532,21.319Z" style="fill:rgb(138,140,142);fill-rule:nonzero;"/>
        <path d="M242.514,13.249C242.514,11.387 242.477,9.926 242.368,8.466L245.217,8.466L245.4,11.351L245.473,11.351C246.349,9.707 248.395,8.064 251.318,8.064C253.765,8.064 257.564,9.525 257.564,15.586L257.564,26.139L254.349,26.139L254.349,15.951C254.349,13.103 253.29,10.693 250.258,10.693C248.176,10.693 246.532,12.19 245.948,13.979C245.801,14.381 245.728,14.965 245.728,15.477L245.728,26.139L242.514,26.139L242.514,13.249Z" style="fill:rgb(138,140,142);fill-rule:nonzero;"/>
        <path d="M278.345,15.403C278.345,14.892 278.309,14.417 278.163,13.979C277.579,12.081 276.043,10.547 273.669,10.547C270.601,10.547 268.41,13.14 268.41,17.266C268.41,20.698 270.2,23.619 273.633,23.619C275.642,23.619 277.432,22.378 278.089,20.296C278.272,19.785 278.345,19.165 278.345,18.58L278.345,15.403ZM281.56,23.546C281.56,27.636 280.719,30.082 279.04,31.652C277.286,33.223 274.802,33.77 272.574,33.77C270.455,33.77 268.117,33.259 266.692,32.31L267.496,29.827C268.665,30.593 270.492,31.25 272.683,31.25C275.971,31.25 278.381,29.535 278.381,25.043L278.381,23.108L278.309,23.108C277.359,24.751 275.423,26.065 272.683,26.065C268.299,26.065 265.158,22.341 265.158,17.412C265.158,11.423 269.067,8.064 273.158,8.064C276.227,8.064 277.871,9.634 278.674,11.095L278.748,11.095L278.857,8.466L281.706,8.466C281.596,9.707 281.56,11.131 281.56,13.286L281.56,23.546Z" style="fill:rgb(138,140,142);fill-rule:nonzero;"/>
        <path d="M4.946,33.049C4.946,33.429 4.978,33.747 5.041,34.064C5.358,35.364 6.468,36.346 7.863,36.346C9.956,36.346 11.192,34.603 11.192,31.971C11.192,29.498 10.083,27.627 7.927,27.627C6.563,27.627 5.358,28.642 5.041,30.068C4.978,30.322 4.946,30.639 4.946,30.924L4.946,33.049ZM0.126,29.402C0.126,27.373 0.063,25.661 0,24.203L4.185,24.203L4.407,26.358L4.471,26.358C5.612,24.742 7.388,23.853 9.639,23.853C13.032,23.853 16.076,26.802 16.076,31.749C16.076,37.393 12.493,40.056 9.037,40.056C7.166,40.056 5.707,39.295 5.01,38.281L4.946,38.281L4.946,45.986L0.126,45.986L0.126,29.402Z" style="fill:rgb(167,5,50);fill-rule:nonzero;"/>
        <path d="M28.445,32.383C25.909,32.383 23.943,32.985 23.943,34.825C23.943,36.061 24.767,36.664 25.845,36.664C27.019,36.664 28.033,35.871 28.35,34.888C28.414,34.634 28.445,34.349 28.445,34.064L28.445,32.383ZM33.106,35.966C33.106,37.424 33.17,38.851 33.36,39.707L29.016,39.707L28.73,38.154L28.636,38.154C27.621,39.39 26.036,40.056 24.196,40.056C21.058,40.056 19.187,37.773 19.187,35.3C19.187,31.273 22.801,29.371 28.287,29.371L28.287,29.181C28.287,28.356 27.843,27.183 25.465,27.183C23.879,27.183 22.199,27.722 21.184,28.324L20.296,25.249C21.375,24.646 23.499,23.853 26.321,23.853C31.489,23.853 33.106,26.897 33.106,30.544L33.106,35.966Z" style="fill:rgb(167,5,50);fill-rule:nonzero;"/>
        <path d="M38.088,29.307C38.088,27.024 38.056,25.534 37.961,24.203L42.083,24.203L42.273,27.088L42.4,27.088C43.193,24.805 45.064,23.853 46.585,23.853C47.029,23.853 47.252,23.885 47.6,23.949L47.6,28.483C47.188,28.419 46.808,28.356 46.269,28.356C44.493,28.356 43.288,29.276 42.971,30.798C42.908,31.115 42.876,31.463 42.876,31.875L42.876,39.707L38.056,39.707L38.088,29.307Z" style="fill:rgb(167,5,50);fill-rule:nonzero;"/>
        <path d="M59.275,32.383C56.738,32.383 54.772,32.985 54.772,34.825C54.772,36.061 55.597,36.664 56.675,36.664C57.848,36.664 58.863,35.871 59.18,34.888C59.243,34.634 59.275,34.349 59.275,34.064L59.275,32.383ZM63.936,35.966C63.936,37.424 64,38.851 64.189,39.707L59.846,39.707L59.56,38.154L59.465,38.154C58.451,39.39 56.865,40.056 55.026,40.056C51.887,40.056 50.016,37.773 50.016,35.3C50.016,31.273 53.631,29.371 59.116,29.371L59.116,29.181C59.116,28.356 58.672,27.183 56.294,27.183C54.709,27.183 53.028,27.722 52.014,28.324L51.126,25.249C52.204,24.646 54.329,23.853 57.15,23.853C62.319,23.853 63.936,26.897 63.936,30.544L63.936,35.966Z" style="fill:rgb(167,5,50);fill-rule:nonzero;"/>
        <path d="M73.706,33.049C73.706,33.429 73.737,33.747 73.801,34.064C74.118,35.364 75.228,36.346 76.623,36.346C78.715,36.346 79.952,34.603 79.952,31.971C79.952,29.498 78.842,27.627 76.686,27.627C75.322,27.627 74.118,28.642 73.801,30.068C73.737,30.322 73.706,30.639 73.706,30.924L73.706,33.049ZM68.886,29.402C68.886,27.373 68.822,25.661 68.759,24.203L72.944,24.203L73.167,26.358L73.23,26.358C74.371,24.742 76.147,23.853 78.398,23.853C81.791,23.853 84.835,26.802 84.835,31.749C84.835,37.393 81.252,40.056 77.796,40.056C75.925,40.056 74.466,39.295 73.769,38.281L73.706,38.281L73.706,45.986L68.886,45.986L68.886,29.402Z" style="fill:rgb(167,5,50);fill-rule:nonzero;"/>
        <path d="M97.205,32.383C94.668,32.383 92.702,32.985 92.702,34.825C92.702,36.061 93.526,36.664 94.605,36.664C95.778,36.664 96.793,35.871 97.109,34.888C97.173,34.634 97.205,34.349 97.205,34.064L97.205,32.383ZM101.866,35.966C101.866,37.424 101.93,38.851 102.12,39.707L97.775,39.707L97.49,38.154L97.395,38.154C96.38,39.39 94.795,40.056 92.956,40.056C89.816,40.056 87.946,37.773 87.946,35.3C87.946,31.273 91.561,29.371 97.046,29.371L97.046,29.181C97.046,28.356 96.602,27.183 94.224,27.183C92.639,27.183 90.958,27.722 89.943,28.324L89.056,25.249C90.134,24.646 92.258,23.853 95.08,23.853C100.249,23.853 101.866,26.897 101.866,30.544L101.866,35.966Z" style="fill:rgb(167,5,50);fill-rule:nonzero;"/>
        <path d="M112.083,19.985L112.083,24.203L115.539,24.203L115.539,27.754L112.083,27.754L112.083,33.397C112.083,35.268 112.559,36.124 113.985,36.124C114.651,36.124 114.968,36.093 115.412,35.998L115.444,39.644C114.841,39.866 113.668,40.056 112.336,40.056C110.783,40.056 109.483,39.517 108.69,38.724C107.802,37.805 107.358,36.315 107.358,34.126L107.358,27.754L105.297,27.754L105.297,24.203L107.358,24.203L107.358,21.285L112.083,19.985Z" style="fill:rgb(167,5,50);fill-rule:nonzero;"/>
        <path d="M119.917,39.707L119.917,24.203L124.737,24.203L124.737,39.707L119.917,39.707ZM122.295,22.173C120.678,22.173 119.632,21.032 119.632,19.605C119.632,18.146 120.71,17.037 122.358,17.037C124.007,17.037 125.022,18.146 125.054,19.605C125.054,21.032 124.007,22.173 122.327,22.173L122.295,22.173Z" style="fill:rgb(167,5,50);fill-rule:nonzero;"/>
        <path d="M135.583,19.985L135.583,24.203L139.039,24.203L139.039,27.754L135.583,27.754L135.583,33.397C135.583,35.268 136.059,36.124 137.485,36.124C138.151,36.124 138.468,36.093 138.912,35.998L138.944,39.644C138.341,39.866 137.168,40.056 135.836,40.056C134.283,40.056 132.983,39.517 132.19,38.724C131.302,37.805 130.858,36.315 130.858,34.126L130.858,27.754L128.797,27.754L128.797,24.203L130.858,24.203L130.858,21.285L135.583,19.985Z" style="fill:rgb(167,5,50);fill-rule:nonzero;"/>
        <path d="M142.909,35.522C143.797,36.061 145.636,36.664 147.063,36.664C148.522,36.664 149.124,36.188 149.124,35.395C149.124,34.571 148.648,34.19 146.873,33.588C143.639,32.541 142.402,30.766 142.434,28.958C142.434,26.041 144.907,23.853 148.744,23.853C150.551,23.853 152.136,24.297 153.087,24.773L152.263,28.071C151.566,27.722 150.202,27.215 148.902,27.215C147.729,27.215 147.063,27.69 147.063,28.451C147.063,29.212 147.666,29.593 149.568,30.259C152.517,31.242 153.721,32.764 153.753,35.015C153.753,37.932 151.502,40.056 147.063,40.056C145.034,40.056 143.227,39.581 142.053,38.947L142.909,35.522Z" style="fill:rgb(167,5,50);fill-rule:nonzero;"/>
        <path d="M162.645,41.183C162.645,41.451 162.667,41.741 162.735,41.987C163.07,43.348 164.275,44.286 165.659,44.286C167.735,44.286 168.941,42.589 168.941,40.111C168.941,37.946 167.825,36.093 165.749,36.093C164.409,36.093 163.136,37.031 162.757,38.504C162.712,38.772 162.645,39.062 162.645,39.308L162.645,41.183ZM160.681,38.303C160.681,36.919 160.659,35.803 160.591,34.776L162.355,34.776L162.466,36.628L162.511,36.628C163.292,35.29 164.587,34.531 166.329,34.531C168.963,34.531 170.927,36.741 170.927,40.022C170.927,43.907 168.539,45.826 166.016,45.826C164.565,45.826 163.337,45.201 162.69,44.129L162.645,44.129L162.645,50L160.681,50L160.681,38.303Z" style="fill:rgb(167,5,50);fill-rule:nonzero;"/>
        <path d="M180.59,39.107C180.612,37.879 180.077,35.915 177.889,35.915C175.879,35.915 175.032,37.745 174.875,39.107L180.59,39.107ZM174.853,40.513C174.897,43.169 176.572,44.263 178.536,44.263C179.943,44.263 180.813,44.018 181.528,43.728L181.884,45.112C181.193,45.424 179.987,45.804 178.268,45.804C174.964,45.804 172.956,43.594 172.956,40.357C172.956,37.076 174.897,34.508 178.045,34.508C181.572,34.508 182.488,37.611 182.488,39.598C182.488,39.999 182.465,40.312 182.42,40.536L174.853,40.513Z" style="fill:rgb(167,5,50);fill-rule:nonzero;"/>
        <path d="M187.619,32.186L187.619,34.776L190.431,34.776L190.431,36.272L187.619,36.272L187.619,42.098C187.619,43.437 187.998,44.197 189.092,44.197C189.627,44.197 189.94,44.152 190.23,44.063L190.32,45.558C189.94,45.692 189.337,45.826 188.579,45.826C187.664,45.826 186.926,45.513 186.458,45C185.922,44.397 185.699,43.437 185.699,42.165L185.699,36.272L184.024,36.272L184.024,34.776L185.699,34.776L185.699,32.789L187.619,32.186Z" style="fill:rgb(167,5,50);fill-rule:nonzero;"/>
        <path d="M199.697,39.107C199.718,37.879 199.183,35.915 196.996,35.915C194.986,35.915 194.138,37.745 193.982,39.107L199.697,39.107ZM193.959,40.513C194.003,43.169 195.678,44.263 197.643,44.263C199.049,44.263 199.919,44.018 200.634,43.728L200.991,45.112C200.299,45.424 199.093,45.804 197.375,45.804C194.071,45.804 192.062,43.594 192.062,40.357C192.062,37.076 194.003,34.508 197.152,34.508C200.678,34.508 201.594,37.611 201.594,39.598C201.594,39.999 201.572,40.312 201.527,40.536L193.959,40.513Z" style="fill:rgb(167,5,50);fill-rule:nonzero;"/>
        <path d="M204.381,38.147C204.381,36.874 204.359,35.781 204.292,34.776L206.01,34.776L206.1,36.897L206.167,36.897C206.658,35.446 207.864,34.531 209.18,34.531C209.381,34.531 209.538,34.552 209.716,34.597L209.716,36.428C209.493,36.406 209.292,36.383 209.024,36.383C207.64,36.383 206.658,37.432 206.39,38.883C206.345,39.173 206.323,39.486 206.323,39.821L206.323,45.581L204.359,45.581L204.381,38.147Z" style="fill:rgb(167,5,50);fill-rule:nonzero;"/>
    </g>
</svg>
