<?xml version="1.0" encoding="UTF-8" standalone="no"?>
<!DOCTYPE svg PUBLIC "-//W3C//DTD SVG 1.1//EN" "http://www.w3.org/Graphics/SVG/1.1/DTD/svg11.dtd">
<svg width="100%" height="100%" viewBox="0 0 1246 180" version="1.1" xmlns="http://www.w3.org/2000/svg" xmlns:xlink="http://www.w3.org/1999/xlink" xml:space="preserve" xmlns:serif="http://www.serif.com/" style="fill-rule:evenodd;clip-rule:evenodd;stroke-linejoin:round;stroke-miterlimit:2;">
    <g transform="matrix(4.16667,0,0,4.16667,0,0)">
        <path d="M5.082,3.501L5.082,7.163L9.06,7.163L9.06,9.278L5.082,9.278L5.082,17.518C5.082,19.413 5.619,20.486 7.166,20.486C7.924,20.486 8.366,20.423 8.776,20.296L8.902,22.412C8.366,22.601 7.513,22.79 6.44,22.79C5.146,22.79 4.104,22.349 3.44,21.622C2.683,20.77 2.367,19.413 2.367,17.613L2.367,9.278L0,9.278L0,7.163L2.367,7.163L2.367,4.353L5.082,3.501Z" style="fill:rgb(138,140,142);fill-rule:nonzero;"/>
        <path d="M15.343,22.443L15.343,7.163L18.121,7.163L18.121,22.443L15.343,22.443ZM16.668,4.353C15.627,4.353 14.932,3.533 14.932,2.554C14.932,1.575 15.658,0.786 16.732,0.786C17.805,0.786 18.5,1.575 18.5,2.554C18.5,3.533 17.805,4.353 16.7,4.353L16.668,4.353Z" style="fill:rgb(138,140,142);fill-rule:nonzero;"/>
        <path d="M25.509,19.634C26.361,20.139 27.814,20.707 29.203,20.707C31.191,20.707 32.139,19.728 32.139,18.434C32.139,17.108 31.349,16.382 29.329,15.624C26.551,14.614 25.256,13.13 25.256,11.299C25.256,8.836 27.277,6.816 30.528,6.816C32.076,6.816 33.433,7.227 34.254,7.763L33.591,9.752C32.991,9.405 31.886,8.868 30.465,8.868C28.824,8.868 27.94,9.815 27.94,10.952C27.94,12.246 28.824,12.814 30.813,13.572C33.433,14.551 34.822,15.876 34.822,18.181C34.822,20.897 32.707,22.79 29.139,22.79C27.466,22.79 25.919,22.349 24.846,21.717L25.509,19.634Z" style="fill:rgb(138,140,142);fill-rule:nonzero;"/>
        <path d="M52.439,21.907C51.712,22.254 50.103,22.79 48.05,22.79C43.441,22.79 40.442,19.665 40.442,14.961C40.442,10.257 43.662,6.816 48.65,6.816C50.292,6.816 51.744,7.227 52.502,7.637L51.871,9.752C51.208,9.405 50.166,9.026 48.65,9.026C45.146,9.026 43.252,11.646 43.252,14.835C43.252,18.371 45.525,20.549 48.556,20.549C50.134,20.549 51.176,20.17 51.965,19.823L52.439,21.907Z" style="fill:rgb(138,140,142);fill-rule:nonzero;"/>
        <path d="M58.848,0.028L61.626,0.028L61.626,9.562L61.689,9.562C62.131,8.773 62.826,8.047 63.678,7.605C64.499,7.1 65.477,6.816 66.519,6.816C68.571,6.816 71.855,8.079 71.855,13.351L71.855,22.443L69.077,22.443L69.077,13.667C69.077,11.173 68.161,9.121 65.541,9.121C63.741,9.121 62.352,10.383 61.815,11.899C61.657,12.278 61.626,12.688 61.626,13.225L61.626,22.443L58.848,22.443L58.848,0.028Z" style="fill:rgb(138,140,142);fill-rule:nonzero;"/>
        <rect x="79.527" y="0.028" width="2.778" height="22.415" style="fill:rgb(138,140,142);fill-rule:nonzero;"/>
        <path d="M99.763,13.288C99.795,11.552 99.037,8.773 95.943,8.773C93.102,8.773 91.902,11.362 91.681,13.288L99.763,13.288ZM91.65,15.277C91.713,19.034 94.081,20.581 96.859,20.581C98.848,20.581 100.08,20.233 101.09,19.823L101.595,21.78C100.616,22.222 98.911,22.759 96.48,22.759C91.808,22.759 88.966,19.634 88.966,15.056C88.966,10.415 91.713,6.785 96.165,6.785C101.153,6.785 102.447,11.173 102.447,13.982C102.447,14.551 102.416,14.993 102.353,15.309L91.65,15.277Z" style="fill:rgb(138,140,142);fill-rule:nonzero;"/>
        <path d="M109.078,11.93C109.078,10.131 109.046,8.584 108.951,7.163L111.382,7.163L111.508,10.163L111.603,10.163C112.298,8.11 114.002,6.816 115.865,6.816C116.149,6.816 116.37,6.848 116.623,6.911L116.623,9.499C116.307,9.468 116.023,9.436 115.644,9.436C113.687,9.436 112.298,10.92 111.919,12.972C111.855,13.383 111.824,13.825 111.824,14.298L111.824,22.443L109.046,22.443L109.078,11.93Z" style="fill:rgb(138,140,142);fill-rule:nonzero;"/>
        <path d="M124.45,7.163L126.502,14.898C126.912,16.603 127.323,18.213 127.606,19.792L127.701,19.792C128.048,18.245 128.554,16.603 129.059,14.93L131.553,7.163L133.889,7.163L136.257,14.803C136.825,16.603 137.267,18.245 137.615,19.792L137.709,19.792C137.962,18.245 138.372,16.634 138.877,14.835L141.056,7.163L143.802,7.163L138.877,22.443L136.352,22.443L134.016,15.15C133.479,13.414 133.037,11.899 132.658,10.099L132.595,10.099C132.216,11.93 131.742,13.54 131.206,15.182L128.743,22.443L126.218,22.443L121.608,7.163L124.45,7.163Z" style="fill:rgb(138,140,142);fill-rule:nonzero;"/>
        <path d="M159.152,13.288C159.184,11.552 158.426,8.773 155.332,8.773C152.491,8.773 151.291,11.362 151.07,13.288L159.152,13.288ZM151.039,15.277C151.102,19.034 153.469,20.581 156.248,20.581C158.236,20.581 159.468,20.233 160.478,19.823L160.983,21.78C160.005,22.222 158.3,22.759 155.869,22.759C151.196,22.759 148.355,19.634 148.355,15.056C148.355,10.415 151.102,6.785 155.553,6.785C160.541,6.785 161.836,11.173 161.836,13.982C161.836,14.551 161.804,14.993 161.741,15.309L151.039,15.277Z" style="fill:rgb(138,140,142);fill-rule:nonzero;"/>
        <path d="M168.466,11.93C168.466,10.131 168.435,8.584 168.34,7.163L170.771,7.163L170.897,10.163L170.992,10.163C171.687,8.11 173.391,6.816 175.254,6.816C175.538,6.816 175.759,6.848 176.012,6.911L176.012,9.499C175.695,9.468 175.411,9.436 175.033,9.436C173.075,9.436 171.687,10.92 171.308,12.972C171.244,13.383 171.213,13.825 171.213,14.298L171.213,22.443L168.435,22.443L168.466,11.93Z" style="fill:rgb(138,140,142);fill-rule:nonzero;"/>
        <path d="M184.816,14.172L184.879,14.172C185.258,13.635 185.764,12.94 186.205,12.435L190.72,7.163L194.035,7.163L188.131,13.446L194.855,22.443L191.478,22.443L186.237,15.087L184.816,16.698L184.816,22.443L182.038,22.443L182.038,0.028L184.816,0.028L184.816,14.172Z" style="fill:rgb(138,140,142);fill-rule:nonzero;"/>
        <path d="M211.05,19.634C211.902,20.139 213.354,20.707 214.743,20.707C216.732,20.707 217.68,19.728 217.68,18.434C217.68,17.108 216.891,16.382 214.87,15.624C212.092,14.614 210.797,13.13 210.797,11.299C210.797,8.836 212.817,6.816 216.069,6.816C217.616,6.816 218.974,7.227 219.795,7.763L219.132,9.752C218.532,9.405 217.427,8.868 216.007,8.868C214.364,8.868 213.48,9.815 213.48,10.952C213.48,12.246 214.364,12.814 216.354,13.572C218.974,14.551 220.363,15.876 220.363,18.181C220.363,20.897 218.248,22.79 214.681,22.79C213.007,22.79 211.46,22.349 210.387,21.717L211.05,19.634Z" style="fill:rgb(138,140,142);fill-rule:nonzero;"/>
        <path d="M230.435,3.501L230.435,7.163L234.412,7.163L234.412,9.278L230.435,9.278L230.435,17.518C230.435,19.413 230.971,20.486 232.518,20.486C233.275,20.486 233.718,20.423 234.128,20.296L234.254,22.412C233.718,22.601 232.865,22.79 231.792,22.79C230.497,22.79 229.456,22.349 228.793,21.622C228.035,20.77 227.72,19.413 227.72,17.613L227.72,9.278L225.352,9.278L225.352,7.163L227.72,7.163L227.72,4.353L230.435,3.501Z" style="fill:rgb(138,140,142);fill-rule:nonzero;"/>
        <path d="M248.841,4.858C247.956,4.858 247.325,4.132 247.325,3.28C247.325,2.428 247.988,1.702 248.903,1.702C249.756,1.702 250.419,2.396 250.419,3.28C250.419,4.132 249.819,4.858 248.872,4.858L248.841,4.858ZM248.746,14.645C245.715,14.582 242.273,15.119 242.273,18.086C242.273,19.918 243.474,20.739 244.862,20.739C246.883,20.739 248.178,19.476 248.619,18.181C248.714,17.897 248.746,17.581 248.746,17.297L248.746,14.645ZM243.095,4.858C242.179,4.858 241.548,4.132 241.548,3.28C241.548,2.428 242.242,1.702 243.126,1.702C243.979,1.702 244.642,2.396 244.642,3.28C244.642,4.132 244.042,4.858 243.126,4.858L243.095,4.858ZM251.461,18.781C251.461,20.107 251.523,21.401 251.682,22.443L249.188,22.443L248.936,20.518L248.841,20.518C248.02,21.717 246.347,22.79 244.168,22.79C241.074,22.79 239.495,20.612 239.495,18.402C239.495,14.708 242.779,12.688 248.683,12.72L248.683,12.404C248.683,11.141 248.335,8.836 245.21,8.868C243.758,8.868 242.273,9.278 241.2,10.004L240.569,8.142C241.832,7.353 243.694,6.816 245.62,6.816C250.324,6.816 251.461,10.004 251.461,13.067L251.461,18.781Z" style="fill:rgb(138,140,142);fill-rule:nonzero;"/>
        <path d="M262.416,3.501L262.416,7.163L266.394,7.163L266.394,9.278L262.416,9.278L262.416,17.518C262.416,19.413 262.952,20.486 264.499,20.486C265.257,20.486 265.699,20.423 266.109,20.296L266.235,22.412C265.699,22.601 264.847,22.79 263.773,22.79C262.479,22.79 261.437,22.349 260.773,21.622C260.017,20.77 259.7,19.413 259.7,17.613L259.7,9.278L257.333,9.278L257.333,7.163L259.7,7.163L259.7,4.353L262.416,3.501Z" style="fill:rgb(138,140,142);fill-rule:nonzero;"/>
        <path d="M276.023,3.501L276.023,7.163L280.001,7.163L280.001,9.278L276.023,9.278L276.023,17.518C276.023,19.413 276.56,20.486 278.106,20.486C278.864,20.486 279.307,20.423 279.717,20.296L279.843,22.412C279.307,22.601 278.454,22.79 277.381,22.79C276.086,22.79 275.045,22.349 274.382,21.622C273.624,20.77 273.309,19.413 273.309,17.613L273.309,9.278L270.94,9.278L270.94,7.163L273.309,7.163L273.309,4.353L276.023,3.501Z" style="fill:rgb(138,140,142);fill-rule:nonzero;"/>
        <path d="M295.791,13.288C295.822,11.552 295.064,8.773 291.971,8.773C289.129,8.773 287.93,11.362 287.709,13.288L295.791,13.288ZM287.677,15.277C287.74,19.034 290.108,20.581 292.887,20.581C294.875,20.581 296.106,20.233 297.116,19.823L297.622,21.78C296.644,22.222 294.938,22.759 292.508,22.759C287.835,22.759 284.993,19.634 284.993,15.056C284.993,10.415 287.74,6.785 292.191,6.785C297.18,6.785 298.475,11.173 298.475,13.982C298.475,14.551 298.442,14.993 298.38,15.309L287.677,15.277Z" style="fill:rgb(138,140,142);fill-rule:nonzero;"/>
        <path d="M102.447,28.346C102.447,28.675 102.474,28.949 102.529,29.223C102.803,30.347 103.763,31.198 104.97,31.198C106.779,31.198 107.849,29.689 107.849,27.414C107.849,25.275 106.889,23.657 105.024,23.657C103.845,23.657 102.803,24.534 102.529,25.768C102.474,25.988 102.447,26.262 102.447,26.509L102.447,28.346ZM98.279,25.192C98.279,23.438 98.224,21.957 98.169,20.696L101.789,20.696L101.981,22.56L102.036,22.56C103.023,21.162 104.558,20.394 106.505,20.394C109.439,20.394 112.071,22.944 112.071,27.222C112.071,32.102 108.973,34.406 105.984,34.406C104.366,34.406 103.105,33.747 102.502,32.87L102.447,32.87L102.447,39.533L98.279,39.533L98.279,25.192Z" style="fill:rgb(167,5,50);fill-rule:nonzero;"/>
        <path d="M122.763,27.77C120.569,27.77 118.869,28.291 118.869,29.881C118.869,30.951 119.582,31.471 120.514,31.471C121.529,31.471 122.406,30.787 122.681,29.936C122.735,29.717 122.763,29.47 122.763,29.223L122.763,27.77ZM126.793,30.869C126.793,32.129 126.848,33.364 127.013,34.104L123.256,34.104L123.01,32.76L122.927,32.76C122.05,33.83 120.679,34.406 119.088,34.406C116.374,34.406 114.756,32.431 114.756,30.293C114.756,26.81 117.882,25.165 122.625,25.165L122.625,25.001C122.625,24.288 122.242,23.273 120.185,23.273C118.814,23.273 117.361,23.739 116.483,24.26L115.716,21.601C116.648,21.08 118.485,20.394 120.926,20.394C125.395,20.394 126.793,23.026 126.793,26.18L126.793,30.869Z" style="fill:rgb(167,5,50);fill-rule:nonzero;"/>
        <path d="M131.096,25.11C131.096,23.136 131.069,21.847 130.985,20.696L134.551,20.696L134.715,23.191L134.825,23.191C135.511,21.217 137.128,20.394 138.445,20.394C138.829,20.394 139.021,20.421 139.322,20.476L139.322,24.397C138.966,24.342 138.637,24.288 138.17,24.288C136.635,24.288 135.593,25.083 135.319,26.399C135.264,26.673 135.236,26.975 135.236,27.331L135.236,34.104L131.069,34.104L131.096,25.11Z" style="fill:rgb(167,5,50);fill-rule:nonzero;"/>
        <path d="M149.414,27.77C147.22,27.77 145.52,28.291 145.52,29.881C145.52,30.951 146.233,31.471 147.165,31.471C148.18,31.471 149.057,30.787 149.332,29.936C149.386,29.717 149.414,29.47 149.414,29.223L149.414,27.77ZM153.444,30.869C153.444,32.129 153.499,33.364 153.664,34.104L149.907,34.104L149.661,32.76L149.578,32.76C148.701,33.83 147.33,34.406 145.739,34.406C143.025,34.406 141.407,32.431 141.407,30.293C141.407,26.81 144.533,25.165 149.276,25.165L149.276,25.001C149.276,24.288 148.893,23.273 146.836,23.273C145.465,23.273 144.012,23.739 143.134,24.26L142.367,21.601C143.299,21.08 145.136,20.394 147.577,20.394C152.046,20.394 153.444,23.026 153.444,26.18L153.444,30.869Z" style="fill:rgb(167,5,50);fill-rule:nonzero;"/>
        <path d="M161.888,28.346C161.888,28.675 161.915,28.949 161.97,29.223C162.244,30.347 163.203,31.198 164.41,31.198C166.22,31.198 167.289,29.689 167.289,27.414C167.289,25.275 166.329,23.657 164.465,23.657C163.286,23.657 162.244,24.534 161.97,25.768C161.915,25.988 161.888,26.262 161.888,26.509L161.888,28.346ZM157.72,25.192C157.72,23.438 157.665,21.957 157.609,20.696L161.229,20.696L161.421,22.56L161.476,22.56C162.463,21.162 163.999,20.394 165.945,20.394C168.88,20.394 171.512,22.944 171.512,27.222C171.512,32.102 168.413,34.406 165.425,34.406C163.807,34.406 162.546,33.747 161.942,32.87L161.888,32.87L161.888,39.533L157.72,39.533L157.72,25.192Z" style="fill:rgb(167,5,50);fill-rule:nonzero;"/>
        <path d="M182.203,27.77C180.01,27.77 178.31,28.291 178.31,29.881C178.31,30.951 179.022,31.471 179.955,31.471C180.97,31.471 181.847,30.787 182.121,29.936C182.176,29.717 182.203,29.47 182.203,29.223L182.203,27.77ZM186.234,30.869C186.234,32.129 186.289,33.364 186.453,34.104L182.696,34.104L182.45,32.76L182.368,32.76C181.49,33.83 180.119,34.406 178.529,34.406C175.814,34.406 174.196,32.431 174.196,30.293C174.196,26.81 177.322,25.165 182.066,25.165L182.066,25.001C182.066,24.288 181.683,23.273 179.626,23.273C178.255,23.273 176.802,23.739 175.924,24.26L175.156,21.601C176.089,21.08 177.926,20.394 180.366,20.394C184.836,20.394 186.234,23.026 186.234,26.18L186.234,30.869Z" style="fill:rgb(167,5,50);fill-rule:nonzero;"/>
        <path d="M195.063,17.049L195.063,20.696L198.053,20.696L198.053,23.767L195.063,23.767L195.063,28.647C195.063,30.265 195.475,31.005 196.709,31.005C197.284,31.005 197.559,30.978 197.942,30.896L197.97,34.049C197.449,34.241 196.435,34.406 195.283,34.406C193.939,34.406 192.815,33.94 192.13,33.254C191.361,32.458 190.978,31.17 190.978,29.278L190.978,23.767L189.195,23.767L189.195,20.696L190.978,20.696L190.978,18.173L195.063,17.049Z" style="fill:rgb(167,5,50);fill-rule:nonzero;"/>
        <path d="M201.835,34.104L201.835,20.696L206.003,20.696L206.003,34.104L201.835,34.104ZM203.892,18.941C202.493,18.941 201.588,17.954 201.588,16.72C201.588,15.458 202.521,14.498 203.946,14.498C205.372,14.498 206.249,15.458 206.276,16.72C206.276,17.954 205.372,18.941 203.919,18.941L203.892,18.941Z" style="fill:rgb(167,5,50);fill-rule:nonzero;"/>
        <path d="M215.379,17.049L215.379,20.696L218.368,20.696L218.368,23.767L215.379,23.767L215.379,28.647C215.379,30.265 215.79,31.005 217.024,31.005C217.6,31.005 217.874,30.978 218.258,30.896L218.285,34.049C217.765,34.241 216.75,34.406 215.599,34.406C214.255,34.406 213.131,33.94 212.445,33.254C211.678,32.458 211.293,31.17 211.293,29.278L211.293,23.767L209.511,23.767L209.511,20.696L211.293,20.696L211.293,18.173L215.379,17.049Z" style="fill:rgb(167,5,50);fill-rule:nonzero;"/>
        <path d="M221.712,30.485C222.479,30.951 224.069,31.471 225.304,31.471C226.565,31.471 227.086,31.06 227.086,30.375C227.086,29.662 226.675,29.332 225.139,28.812C222.342,27.907 221.272,26.372 221.301,24.809C221.301,22.286 223.439,20.394 226.757,20.394C228.32,20.394 229.69,20.778 230.514,21.189L229.801,24.041C229.197,23.739 228.019,23.3 226.894,23.3C225.88,23.3 225.304,23.712 225.304,24.37C225.304,25.028 225.824,25.357 227.47,25.933C230.02,26.783 231.062,28.099 231.089,30.045C231.089,32.569 229.143,34.406 225.304,34.406C223.549,34.406 221.985,33.995 220.972,33.446L221.712,30.485Z" style="fill:rgb(167,5,50);fill-rule:nonzero;"/>
        <g transform="matrix(0.863679,0,0,0.863679,98.169,-0.183965)">
            <path d="M162.645,41.183C162.645,41.451 162.667,41.741 162.735,41.987C163.07,43.348 164.275,44.286 165.659,44.286C167.735,44.286 168.941,42.589 168.941,40.111C168.941,37.946 167.825,36.093 165.749,36.093C164.409,36.093 163.136,37.031 162.757,38.504C162.712,38.772 162.645,39.062 162.645,39.308L162.645,41.183ZM160.681,38.303C160.681,36.919 160.659,35.803 160.591,34.776L162.355,34.776L162.466,36.628L162.511,36.628C163.292,35.29 164.587,34.531 166.329,34.531C168.963,34.531 170.927,36.741 170.927,40.022C170.927,43.907 168.539,45.826 166.016,45.826C164.565,45.826 163.337,45.201 162.69,44.129L162.645,44.129L162.645,50L160.681,50L160.681,38.303Z" style="fill:rgb(167,5,50);fill-rule:nonzero;"/>
        </g>
        <g transform="matrix(0.863679,0,0,0.863679,98.169,-0.183965)">
            <path d="M180.59,39.107C180.612,37.879 180.077,35.915 177.889,35.915C175.879,35.915 175.032,37.745 174.875,39.107L180.59,39.107ZM174.853,40.513C174.897,43.169 176.572,44.263 178.536,44.263C179.943,44.263 180.813,44.018 181.528,43.728L181.884,45.112C181.193,45.424 179.987,45.804 178.268,45.804C174.964,45.804 172.956,43.594 172.956,40.357C172.956,37.076 174.897,34.508 178.045,34.508C181.572,34.508 182.488,37.611 182.488,39.598C182.488,39.999 182.465,40.312 182.42,40.536L174.853,40.513Z" style="fill:rgb(167,5,50);fill-rule:nonzero;"/>
        </g>
        <g transform="matrix(0.863679,0,0,0.863679,98.169,-0.183965)">
            <path d="M187.619,32.186L187.619,34.776L190.431,34.776L190.431,36.272L187.619,36.272L187.619,42.098C187.619,43.437 187.998,44.197 189.092,44.197C189.627,44.197 189.94,44.152 190.23,44.063L190.32,45.558C189.94,45.692 189.337,45.826 188.579,45.826C187.664,45.826 186.926,45.513 186.458,45C185.922,44.397 185.699,43.437 185.699,42.165L185.699,36.272L184.024,36.272L184.024,34.776L185.699,34.776L185.699,32.789L187.619,32.186Z" style="fill:rgb(167,5,50);fill-rule:nonzero;"/>
        </g>
        <g transform="matrix(0.863679,0,0,0.863679,98.169,-0.183965)">
            <path d="M199.697,39.107C199.718,37.879 199.183,35.915 196.996,35.915C194.986,35.915 194.138,37.745 193.982,39.107L199.697,39.107ZM193.959,40.513C194.003,43.169 195.678,44.263 197.643,44.263C199.049,44.263 199.919,44.018 200.634,43.728L200.991,45.112C200.299,45.424 199.093,45.804 197.375,45.804C194.071,45.804 192.062,43.594 192.062,40.357C192.062,37.076 194.003,34.508 197.152,34.508C200.678,34.508 201.594,37.611 201.594,39.598C201.594,39.999 201.572,40.312 201.527,40.536L193.959,40.513Z" style="fill:rgb(167,5,50);fill-rule:nonzero;"/>
        </g>
        <g transform="matrix(0.863679,0,0,0.863679,98.169,-0.183965)">
            <path d="M204.381,38.147C204.381,36.874 204.359,35.781 204.292,34.776L206.01,34.776L206.1,36.897L206.167,36.897C206.658,35.446 207.864,34.531 209.18,34.531C209.381,34.531 209.538,34.552 209.716,34.597L209.716,36.428C209.493,36.406 209.292,36.383 209.024,36.383C207.64,36.383 206.658,37.432 206.39,38.883C206.345,39.173 206.323,39.486 206.323,39.821L206.323,45.581L204.359,45.581L204.381,38.147Z" style="fill:rgb(167,5,50);fill-rule:nonzero;"/>
        </g>
    </g>
</svg>
