<?xml version="1.0" encoding="UTF-8"?><svg id="Ebene_1" xmlns="http://www.w3.org/2000/svg" viewBox="0 0 600 140"><path d="M53.18,39.16v6.27h6.81v3.62h-6.81v14.11c0,3.24,.92,5.08,3.57,5.08,1.3,0,2.05-.11,2.76-.33l.22,3.62c-.92,.32-2.38,.65-4.22,.65-2.22,0-4-.76-5.14-2-1.3-1.46-1.84-3.78-1.84-6.86v-14.27h-4.05v-3.62h4.05v-4.81l4.65-1.46Z" fill="#8a8c8e"/><path d="M70.75,71.59v-26.16h4.76v26.16h-4.76Zm2.27-30.97c-1.78,0-2.97-1.4-2.97-3.08s1.24-3.03,3.08-3.03,3.03,1.35,3.03,3.03-1.19,3.08-3.08,3.08h-.05Z" fill="#8a8c8e"/><path d="M88.16,66.78c1.46,.86,3.95,1.84,6.32,1.84,3.4,0,5.03-1.68,5.03-3.89s-1.35-3.51-4.81-4.81c-4.76-1.73-6.97-4.27-6.97-7.41,0-4.22,3.46-7.68,9.03-7.68,2.65,0,4.97,.7,6.38,1.62l-1.14,3.41c-1.03-.59-2.92-1.51-5.35-1.51-2.81,0-4.32,1.62-4.32,3.57,0,2.22,1.51,3.19,4.92,4.49,4.49,1.68,6.86,3.94,6.86,7.89,0,4.65-3.62,7.89-9.73,7.89-2.86,0-5.51-.76-7.35-1.84l1.14-3.57Z" fill="#8a8c8e"/><path d="M134.27,70.67c-1.24,.59-4,1.51-7.51,1.51-7.89,0-13.03-5.35-13.03-13.4s5.51-13.95,14.05-13.95c2.81,0,5.3,.7,6.6,1.41l-1.08,3.62c-1.14-.59-2.92-1.24-5.51-1.24-6,0-9.24,4.49-9.24,9.95,0,6.05,3.89,9.78,9.08,9.78,2.7,0,4.49-.65,5.84-1.24l.81,3.57Z" fill="#8a8c8e"/><path d="M145.24,33.21h4.76v16.32h.11c.76-1.35,1.95-2.59,3.41-3.35,1.41-.86,3.08-1.35,4.86-1.35,3.51,0,9.14,2.16,9.14,11.19v15.57h-4.76v-15.03c0-4.27-1.57-7.78-6.05-7.78-3.08,0-5.46,2.16-6.38,4.76-.27,.65-.32,1.35-.32,2.27v15.78h-4.76V33.21Z" fill="#8a8c8e"/><rect x="180.65" y="33.21" width="4.76" height="38.38" fill="#8a8c8e"/><path d="M215.29,55.92c.05-2.97-1.24-7.73-6.54-7.73-4.86,0-6.92,4.43-7.3,7.73h13.84Zm-13.89,3.41c.11,6.43,4.16,9.08,8.92,9.08,3.41,0,5.51-.6,7.24-1.3l.86,3.35c-1.68,.76-4.6,1.68-8.76,1.68-8,0-12.87-5.35-12.87-13.19s4.7-14.16,12.33-14.16c8.54,0,10.76,7.51,10.76,12.32,0,.97-.05,1.73-.16,2.27l-18.33-.05Z" fill="#8a8c8e"/><path d="M231.24,53.59c0-3.08-.05-5.73-.22-8.16h4.16l.22,5.14h.16c1.19-3.52,4.11-5.73,7.3-5.73,.49,0,.86,.05,1.3,.16v4.43c-.54-.05-1.03-.11-1.68-.11-3.35,0-5.73,2.54-6.38,6.05-.11,.7-.16,1.46-.16,2.27v13.95h-4.76l.05-18Z" fill="#8a8c8e"/><path d="M257.56,45.43l3.51,13.24c.7,2.92,1.41,5.68,1.89,8.38h.16c.59-2.65,1.46-5.46,2.33-8.32l4.27-13.3h4l4.05,13.08c.97,3.08,1.73,5.89,2.33,8.54h.16c.43-2.65,1.14-5.41,2-8.49l3.73-13.14h4.7l-8.43,26.16h-4.32l-4-12.49c-.92-2.97-1.68-5.57-2.33-8.65h-.11c-.65,3.13-1.46,5.89-2.38,8.7l-4.22,12.43h-4.32l-7.89-26.16h4.87Z" fill="#8a8c8e"/><path d="M316.98,55.92c.05-2.97-1.24-7.73-6.54-7.73-4.86,0-6.92,4.43-7.3,7.73h13.84Zm-13.89,3.41c.11,6.43,4.16,9.08,8.92,9.08,3.4,0,5.51-.6,7.24-1.3l.86,3.35c-1.67,.76-4.59,1.68-8.76,1.68-8,0-12.87-5.35-12.87-13.19s4.7-14.16,12.32-14.16c8.54,0,10.76,7.51,10.76,12.32,0,.97-.05,1.73-.16,2.27l-18.32-.05Z" fill="#8a8c8e"/><path d="M332.92,53.59c0-3.08-.05-5.73-.22-8.16h4.16l.22,5.14h.16c1.19-3.52,4.11-5.73,7.3-5.73,.49,0,.86,.05,1.3,.16v4.43c-.54-.05-1.03-.11-1.68-.11-3.35,0-5.73,2.54-6.38,6.05-.11,.7-.16,1.46-.16,2.27v13.95h-4.76l.05-18Z" fill="#8a8c8e"/><path d="M360.92,57.43h.11c.65-.92,1.52-2.11,2.27-2.97l7.73-9.03h5.68l-10.11,10.76,11.51,15.4h-5.78l-8.97-12.59-2.43,2.76v9.84h-4.76V33.21h4.76v24.22Z" fill="#8a8c8e"/><path d="M405.83,66.78c1.46,.86,3.94,1.84,6.32,1.84,3.41,0,5.03-1.68,5.03-3.89s-1.35-3.51-4.81-4.81c-4.76-1.73-6.97-4.27-6.97-7.41,0-4.22,3.46-7.68,9.03-7.68,2.65,0,4.97,.7,6.38,1.62l-1.14,3.41c-1.03-.59-2.92-1.51-5.35-1.51-2.81,0-4.33,1.62-4.33,3.57,0,2.22,1.51,3.19,4.92,4.49,4.49,1.68,6.86,3.94,6.86,7.89,0,4.65-3.62,7.89-9.73,7.89-2.87,0-5.51-.76-7.35-1.84l1.14-3.57Z" fill="#8a8c8e"/><path d="M439.02,39.16v6.27h6.81v3.62h-6.81v14.11c0,3.24,.92,5.08,3.57,5.08,1.3,0,2.05-.11,2.76-.33l.22,3.62c-.92,.32-2.38,.65-4.22,.65-2.22,0-4-.76-5.13-2-1.3-1.46-1.84-3.78-1.84-6.86v-14.27h-4.05v-3.62h4.05v-4.81l4.65-1.46Z" fill="#8a8c8e"/><path d="M470.54,41.48c-1.52,0-2.6-1.24-2.6-2.7s1.14-2.7,2.7-2.7c1.46,0,2.6,1.19,2.6,2.7s-1.03,2.7-2.65,2.7h-.05Zm-.16,16.76c-5.19-.11-11.08,.81-11.08,5.89,0,3.14,2.06,4.54,4.43,4.54,3.46,0,5.68-2.16,6.43-4.38,.16-.49,.22-1.03,.22-1.51v-4.54Zm-9.68-16.76c-1.57,0-2.65-1.24-2.65-2.7s1.19-2.7,2.7-2.7,2.6,1.19,2.6,2.7-1.03,2.7-2.6,2.7h-.05Zm14.32,23.84c0,2.27,.11,4.49,.38,6.27h-4.27l-.43-3.3h-.16c-1.41,2.05-4.27,3.89-8,3.89-5.3,0-8-3.73-8-7.51,0-6.32,5.62-9.78,15.73-9.73v-.54c0-2.16-.6-6.11-5.95-6.05-2.49,0-5.03,.7-6.87,1.94l-1.08-3.19c2.16-1.35,5.35-2.27,8.65-2.27,8.05,0,10,5.46,10,10.7v9.78Z" fill="#8a8c8e"/><path d="M493.78,39.16v6.27h6.81v3.62h-6.81v14.11c0,3.24,.92,5.08,3.57,5.08,1.3,0,2.05-.11,2.76-.33l.22,3.62c-.92,.32-2.38,.65-4.22,.65-2.22,0-4-.76-5.14-2-1.29-1.46-1.84-3.78-1.84-6.86v-14.27h-4.05v-3.62h4.05v-4.81l4.65-1.46Z" fill="#8a8c8e"/><path d="M517.08,39.16v6.27h6.81v3.62h-6.81v14.11c0,3.24,.92,5.08,3.57,5.08,1.3,0,2.06-.11,2.76-.33l.22,3.62c-.92,.32-2.38,.65-4.22,.65-2.22,0-4-.76-5.13-2-1.3-1.46-1.84-3.78-1.84-6.86v-14.27h-4.06v-3.62h4.06v-4.81l4.65-1.46Z" fill="#8a8c8e"/><path d="M550.92,55.92c.05-2.97-1.24-7.73-6.54-7.73-4.87,0-6.92,4.43-7.3,7.73h13.84Zm-13.89,3.41c.11,6.43,4.16,9.08,8.92,9.08,3.4,0,5.51-.6,7.24-1.3l.87,3.35c-1.67,.76-4.6,1.68-8.76,1.68-8,0-12.87-5.35-12.87-13.19s4.7-14.16,12.32-14.16c8.54,0,10.76,7.51,10.76,12.32,0,.97-.06,1.73-.16,2.27l-18.33-.05Z" fill="#8a8c8e"/><path d="M219.89,81.7c0,.56,.05,1.03,.14,1.5,.47,1.92,2.11,3.38,4.18,3.38,3.1,0,4.93-2.58,4.93-6.48,0-3.66-1.64-6.43-4.84-6.43-2.02,0-3.8,1.5-4.27,3.61-.09,.38-.14,.85-.14,1.27v3.15Zm-7.14-5.4c0-3-.09-5.54-.19-7.7h6.2l.33,3.19h.09c1.69-2.39,4.32-3.71,7.65-3.71,5.02,0,9.53,4.37,9.53,11.69,0,8.36-5.3,12.3-10.42,12.3-2.77,0-4.93-1.13-5.96-2.63h-.09v11.41h-7.14v-24.55Z" fill="#a70532"/><path d="M254.67,80.71c-3.76,0-6.67,.89-6.67,3.61,0,1.83,1.22,2.72,2.82,2.72,1.74,0,3.24-1.17,3.71-2.63,.09-.37,.14-.8,.14-1.22v-2.49Zm6.9,5.31c0,2.16,.09,4.27,.38,5.54h-6.43l-.42-2.3h-.14c-1.5,1.83-3.85,2.82-6.57,2.82-4.65,0-7.42-3.38-7.42-7.04,0-5.96,5.35-8.78,13.47-8.78v-.28c0-1.22-.66-2.96-4.18-2.96-2.35,0-4.84,.8-6.34,1.69l-1.31-4.55c1.6-.89,4.74-2.07,8.92-2.07,7.65,0,10.05,4.51,10.05,9.91v8.03Z" fill="#a70532"/><path d="M268.94,76.16c0-3.38-.05-5.59-.19-7.56h6.11l.28,4.27h.19c1.17-3.38,3.94-4.79,6.2-4.79,.66,0,.99,.05,1.5,.14v6.71c-.61-.09-1.17-.19-1.97-.19-2.63,0-4.41,1.36-4.88,3.61-.09,.47-.14,.99-.14,1.6v11.6h-7.13l.05-15.4Z" fill="#a70532"/><path d="M300.3,80.71c-3.76,0-6.67,.89-6.67,3.61,0,1.83,1.22,2.72,2.82,2.72,1.74,0,3.24-1.17,3.71-2.63,.09-.37,.14-.8,.14-1.22v-2.49Zm6.9,5.31c0,2.16,.09,4.27,.38,5.54h-6.43l-.42-2.3h-.14c-1.5,1.83-3.85,2.82-6.57,2.82-4.65,0-7.42-3.38-7.42-7.04,0-5.96,5.35-8.78,13.47-8.78v-.28c0-1.22-.66-2.96-4.18-2.96-2.35,0-4.84,.8-6.34,1.69l-1.31-4.55c1.6-.89,4.74-2.07,8.92-2.07,7.65,0,10.05,4.51,10.05,9.91v8.03Z" fill="#a70532"/><path d="M321.66,81.7c0,.56,.05,1.03,.14,1.5,.47,1.92,2.11,3.38,4.18,3.38,3.1,0,4.93-2.58,4.93-6.48,0-3.66-1.64-6.43-4.84-6.43-2.02,0-3.8,1.5-4.27,3.61-.09,.38-.14,.85-.14,1.27v3.15Zm-7.14-5.4c0-3-.09-5.54-.19-7.7h6.2l.33,3.19h.09c1.69-2.39,4.32-3.71,7.65-3.71,5.03,0,9.53,4.37,9.53,11.69,0,8.36-5.31,12.3-10.42,12.3-2.77,0-4.93-1.13-5.96-2.63h-.09v11.41h-7.14v-24.55Z" fill="#a70532"/><path d="M356.44,80.71c-3.75,0-6.67,.89-6.67,3.61,0,1.83,1.22,2.72,2.82,2.72,1.74,0,3.24-1.17,3.71-2.63,.09-.37,.14-.8,.14-1.22v-2.49Zm6.9,5.31c0,2.16,.09,4.27,.37,5.54h-6.43l-.42-2.3h-.14c-1.5,1.83-3.85,2.82-6.57,2.82-4.65,0-7.42-3.38-7.42-7.04,0-5.96,5.35-8.78,13.47-8.78v-.28c0-1.22-.66-2.96-4.18-2.96-2.35,0-4.84,.8-6.34,1.69l-1.31-4.55c1.6-.89,4.74-2.07,8.92-2.07,7.65,0,10.05,4.51,10.05,9.91v8.03Z" fill="#a70532"/><path d="M378.46,62.36v6.24h5.12v5.26h-5.12v8.36c0,2.77,.71,4.04,2.82,4.04,.98,0,1.46-.05,2.11-.19l.05,5.4c-.89,.33-2.63,.61-4.6,.61-2.3,0-4.23-.8-5.4-1.97-1.32-1.36-1.97-3.57-1.97-6.81v-9.44h-3.05v-5.26h3.05v-4.32l6.99-1.92Z" fill="#a70532"/><path d="M390.05,91.56v-22.96h7.14v22.96h-7.14Zm3.52-25.96c-2.4,0-3.94-1.69-3.94-3.8s1.6-3.8,4.04-3.8,3.94,1.64,3.99,3.8c0,2.11-1.55,3.8-4.04,3.8h-.05Z" fill="#a70532"/><path d="M413.24,62.36v6.24h5.12v5.26h-5.12v8.36c0,2.77,.7,4.04,2.82,4.04,.99,0,1.46-.05,2.11-.19l.05,5.4c-.89,.33-2.63,.61-4.6,.61-2.3,0-4.23-.8-5.4-1.97-1.31-1.36-1.97-3.57-1.97-6.81v-9.44h-3.05v-5.26h3.05v-4.32l7-1.92Z" fill="#a70532"/><path d="M424.09,85.36c1.31,.8,4.04,1.69,6.15,1.69s3.05-.7,3.05-1.88-.7-1.79-3.33-2.68c-4.79-1.55-6.62-4.18-6.57-6.85,0-4.32,3.66-7.56,9.34-7.56,2.68,0,5.02,.66,6.43,1.36l-1.22,4.88c-1.03-.52-3.05-1.27-4.98-1.27-1.74,0-2.72,.71-2.72,1.83s.89,1.69,3.71,2.68c4.37,1.46,6.15,3.71,6.2,7.04,0,4.32-3.33,7.47-9.9,7.47-3,0-5.68-.7-7.42-1.64l1.27-5.07Z" fill="#a70532"/><path d="M453.07,93.75c0,.4,.03,.83,.13,1.19,.5,2.01,2.28,3.4,4.32,3.4,3.07,0,4.85-2.51,4.85-6.17,0-3.2-1.65-5.94-4.72-5.94-1.98,0-3.86,1.39-4.42,3.57-.07,.4-.17,.83-.17,1.19v2.77Zm-2.9-4.26c0-2.05-.03-3.7-.13-5.22h2.61l.16,2.74h.07c1.15-1.98,3.07-3.1,5.65-3.1,3.9,0,6.8,3.27,6.8,8.12,0,5.74-3.53,8.58-7.26,8.58-2.15,0-3.96-.92-4.92-2.51h-.07v8.68h-2.9v-17.3Z" fill="#a70532"/><path d="M479.61,90.68c.03-1.82-.76-4.72-3.99-4.72-2.97,0-4.22,2.71-4.46,4.72h8.45Zm-8.48,2.08c.07,3.93,2.54,5.55,5.45,5.55,2.08,0,3.37-.36,4.42-.79l.53,2.05c-1.02,.46-2.81,1.02-5.35,1.02-4.89,0-7.86-3.27-7.86-8.05s2.87-8.65,7.53-8.65c5.22,0,6.57,4.59,6.57,7.53,0,.59-.03,1.06-.1,1.39l-11.19-.03Z" fill="#a70532"/><path d="M490,80.44v3.83h4.16v2.21h-4.16v8.62c0,1.98,.56,3.1,2.18,3.1,.79,0,1.25-.07,1.68-.2l.13,2.21c-.56,.2-1.45,.4-2.57,.4-1.35,0-2.44-.46-3.14-1.22-.79-.89-1.12-2.31-1.12-4.19v-8.71h-2.48v-2.21h2.48v-2.94l2.84-.89Z" fill="#a70532"/><path d="M507.86,90.68c.03-1.82-.76-4.72-3.99-4.72-2.97,0-4.23,2.71-4.46,4.72h8.45Zm-8.49,2.08c.07,3.93,2.54,5.55,5.45,5.55,2.08,0,3.37-.36,4.42-.79l.53,2.05c-1.02,.46-2.81,1.02-5.35,1.02-4.89,0-7.86-3.27-7.86-8.05s2.87-8.65,7.53-8.65c5.21,0,6.57,4.59,6.57,7.53,0,.59-.03,1.06-.1,1.39l-11.19-.03Z" fill="#a70532"/><path d="M514.79,89.26c0-1.88-.03-3.5-.13-4.98h2.54l.13,3.14h.1c.73-2.15,2.51-3.5,4.46-3.5,.3,0,.53,.03,.79,.1v2.71c-.33-.03-.63-.07-1.02-.07-2.05,0-3.5,1.55-3.9,3.7-.07,.43-.1,.89-.1,1.39v8.52h-2.9l.03-10.99Z" fill="#a70532"/></svg>