<?xml version="1.0" encoding="UTF-8"?><svg id="Ebene_1" xmlns="http://www.w3.org/2000/svg" viewBox="0 0 600 140"><path d="M56.07,68.85c0,.93,.08,1.7,.23,2.48,.77,3.17,3.48,5.57,6.89,5.57,5.11,0,8.13-4.26,8.13-10.68,0-6.04-2.71-10.61-7.97-10.61-3.33,0-6.27,2.48-7.05,5.96-.15,.62-.23,1.39-.23,2.09v5.19Zm-11.77-8.9c0-4.95-.15-9.13-.31-12.69h10.22l.54,5.26h.16c2.79-3.95,7.12-6.12,12.62-6.12,8.28,0,15.72,7.2,15.72,19.28,0,13.78-8.75,20.28-17.19,20.28-4.57,0-8.13-1.86-9.83-4.33h-.16v18.81h-11.77V59.95Z" fill="#a70532"/><path d="M113.45,67.23c-6.19,0-10.99,1.47-10.99,5.96,0,3.02,2.01,4.49,4.64,4.49,2.87,0,5.34-1.94,6.12-4.34,.16-.62,.23-1.32,.23-2.01v-4.1Zm11.38,8.75c0,3.56,.16,7.04,.62,9.13h-10.61l-.7-3.79h-.23c-2.48,3.02-6.35,4.64-10.84,4.64-7.66,0-12.23-5.57-12.23-11.61,0-9.83,8.82-14.48,22.22-14.48v-.46c0-2.01-1.08-4.88-6.89-4.88-3.87,0-7.97,1.32-10.45,2.79l-2.17-7.51c2.63-1.47,7.82-3.41,14.71-3.41,12.62,0,16.56,7.43,16.56,16.34v13.24Z" fill="#a70532"/><path d="M136.99,59.72c0-5.57-.08-9.21-.31-12.46h10.06l.46,7.04h.31c1.94-5.57,6.5-7.9,10.22-7.9,1.08,0,1.63,.08,2.48,.23v11.07c-1.01-.16-1.93-.31-3.25-.31-4.34,0-7.28,2.25-8.05,5.96-.15,.77-.23,1.62-.23,2.63v19.12h-11.77l.08-25.39Z" fill="#a70532"/><path d="M188.71,67.23c-6.19,0-10.99,1.47-10.99,5.96,0,3.02,2.01,4.49,4.65,4.49,2.86,0,5.34-1.94,6.12-4.34,.15-.62,.23-1.32,.23-2.01v-4.1Zm11.38,8.75c0,3.56,.16,7.04,.62,9.13h-10.6l-.7-3.79h-.23c-2.48,3.02-6.35,4.64-10.84,4.64-7.66,0-12.23-5.57-12.23-11.61,0-9.83,8.83-14.48,22.22-14.48v-.46c0-2.01-1.08-4.88-6.89-4.88-3.87,0-7.97,1.32-10.45,2.79l-2.17-7.51c2.63-1.47,7.82-3.41,14.71-3.41,12.62,0,16.57,7.43,16.57,16.34v13.24Z" fill="#a70532"/><path d="M223.95,68.85c0,.93,.08,1.7,.23,2.48,.77,3.17,3.48,5.57,6.89,5.57,5.11,0,8.13-4.26,8.13-10.68,0-6.04-2.71-10.61-7.97-10.61-3.33,0-6.27,2.48-7.04,5.96-.16,.62-.23,1.39-.23,2.09v5.19Zm-11.77-8.9c0-4.95-.16-9.13-.31-12.69h10.22l.54,5.26h.15c2.79-3.95,7.12-6.12,12.62-6.12,8.28,0,15.72,7.2,15.72,19.28,0,13.78-8.75,20.28-17.19,20.28-4.57,0-8.13-1.86-9.83-4.33h-.15v18.81h-11.77V59.95Z" fill="#a70532"/><path d="M281.32,67.23c-6.19,0-10.99,1.47-10.99,5.96,0,3.02,2.01,4.49,4.65,4.49,2.86,0,5.34-1.94,6.11-4.34,.16-.62,.23-1.32,.23-2.01v-4.1Zm11.38,8.75c0,3.56,.16,7.04,.62,9.13h-10.61l-.7-3.79h-.23c-2.48,3.02-6.35,4.64-10.84,4.64-7.67,0-12.23-5.57-12.23-11.61,0-9.83,8.83-14.48,22.22-14.48v-.46c0-2.01-1.08-4.88-6.89-4.88-3.87,0-7.97,1.32-10.45,2.79l-2.17-7.51c2.63-1.47,7.82-3.41,14.71-3.41,12.62,0,16.57,7.43,16.57,16.34v13.24Z" fill="#a70532"/><path d="M317.64,36.96v10.3h8.44v8.67h-8.44v13.78c0,4.57,1.16,6.66,4.64,6.66,1.63,0,2.4-.08,3.48-.31l.08,8.9c-1.47,.54-4.34,1.01-7.59,1.01-3.79,0-6.97-1.32-8.9-3.25-2.17-2.24-3.25-5.88-3.25-11.23v-15.56h-5.03v-8.67h5.03v-7.12l11.54-3.17Z" fill="#a70532"/><path d="M336.77,85.11V47.26h11.77v37.85h-11.77Zm5.81-42.81c-3.95,0-6.5-2.79-6.5-6.27s2.63-6.27,6.66-6.27,6.5,2.71,6.58,6.27c0,3.48-2.56,6.27-6.66,6.27h-.08Z" fill="#a70532"/><path d="M375.01,36.96v10.3h8.44v8.67h-8.44v13.78c0,4.57,1.16,6.66,4.64,6.66,1.63,0,2.4-.08,3.48-.31l.08,8.9c-1.47,.54-4.34,1.01-7.59,1.01-3.79,0-6.97-1.32-8.9-3.25-2.17-2.24-3.25-5.88-3.25-11.23v-15.56h-5.03v-8.67h5.03v-7.12l11.54-3.17Z" fill="#a70532"/><path d="M392.9,74.89c2.17,1.32,6.66,2.79,10.14,2.79s5.03-1.16,5.03-3.1-1.16-2.94-5.5-4.41c-7.9-2.56-10.92-6.89-10.84-11.3,0-7.12,6.04-12.46,15.41-12.46,4.41,0,8.28,1.08,10.6,2.25l-2.01,8.05c-1.7-.85-5.03-2.09-8.21-2.09-2.86,0-4.49,1.16-4.49,3.02s1.47,2.79,6.12,4.41c7.2,2.4,10.14,6.12,10.22,11.61,0,7.12-5.5,12.31-16.33,12.31-4.95,0-9.37-1.16-12.23-2.71l2.09-8.36Z" fill="#a70532"/><path d="M441.08,88.71c0,.65,.05,1.36,.22,1.96,.82,3.32,3.76,5.61,7.14,5.61,5.07,0,8.01-4.14,8.01-10.19,0-5.29-2.72-9.81-7.79-9.81-3.27,0-6.38,2.29-7.3,5.89-.11,.65-.27,1.36-.27,1.96v4.58Zm-4.79-7.03c0-3.38-.05-6.1-.22-8.61h4.31l.27,4.52h.11c1.91-3.27,5.07-5.12,9.32-5.12,6.43,0,11.23,5.4,11.23,13.41,0,9.48-5.83,14.17-11.99,14.17-3.54,0-6.54-1.53-8.12-4.14h-.11v14.33h-4.79v-28.56Z" fill="#a70532"/><path d="M484.89,83.64c.05-3-1.25-7.79-6.59-7.79-4.91,0-6.98,4.47-7.36,7.79h13.95Zm-14.01,3.43c.11,6.48,4.2,9.16,8.99,9.16,3.44,0,5.56-.6,7.3-1.31l.87,3.38c-1.69,.76-4.63,1.69-8.83,1.69-8.07,0-12.97-5.4-12.97-13.3s4.74-14.28,12.42-14.28c8.61,0,10.85,7.58,10.85,12.43,0,.98-.06,1.74-.17,2.29l-18.47-.06Z" fill="#a70532"/><path d="M502.05,66.75v6.32h6.87v3.65h-6.87v14.22c0,3.27,.93,5.12,3.6,5.12,1.31,0,2.07-.11,2.78-.33l.22,3.65c-.93,.33-2.4,.65-4.25,.65-2.23,0-4.04-.76-5.18-2.02-1.31-1.47-1.85-3.82-1.85-6.92v-14.39h-4.09v-3.65h4.09v-4.85l4.69-1.47Z" fill="#a70532"/><path d="M531.54,83.64c.05-3-1.25-7.79-6.59-7.79-4.91,0-6.98,4.47-7.36,7.79h13.95Zm-14.01,3.43c.11,6.48,4.2,9.16,8.99,9.16,3.43,0,5.56-.6,7.3-1.31l.87,3.38c-1.69,.76-4.63,1.69-8.83,1.69-8.07,0-12.97-5.4-12.97-13.3s4.74-14.28,12.43-14.28c8.61,0,10.84,7.58,10.84,12.43,0,.98-.05,1.74-.16,2.29l-18.48-.06Z" fill="#a70532"/><path d="M542.98,81.3c0-3.11-.05-5.78-.22-8.23h4.19l.22,5.18h.16c1.2-3.54,4.14-5.78,7.36-5.78,.49,0,.87,.05,1.31,.16v4.47c-.54-.05-1.04-.11-1.69-.11-3.38,0-5.78,2.56-6.43,6.1-.11,.71-.16,1.47-.16,2.29v14.06h-4.79l.05-18.15Z" fill="#a70532"/></svg>