<?xml version="1.0" encoding="UTF-8"?><svg id="Text" xmlns="http://www.w3.org/2000/svg" viewBox="0 0 128 128"><defs><style>.cls-1{fill:#707173;}</style></defs><path class="cls-1" d="M119.05,8.95V119.05H8.95V8.95H119.05m4.95-4.95H4V124H124V4h0Z"/><path class="cls-1" d="M53.45,78.29v24.74h-15.77V30.9c3.6,0,7.5-.09,11.38,.09,.65,.03,1.54,1.16,1.8,1.95,.48,1.47,.57,3.06,.91,5.1,3.73-4.25,7.75-7.15,13.04-7.91,10.62-1.53,19.05,3.12,23.25,13.81,3.27,8.33,2.87,16.9-.34,25.37-4.69,12.38-21.38,19.4-34.27,8.97Zm.09-21.24h.03c0,1.27-.04,2.54,0,3.81,.2,6.02,3.07,9.74,8.04,10.44,5.48,.77,10.25-2.17,11.48-8.09,.82-3.95,.93-8.29,.21-12.25-1.14-6.33-5.6-9.31-11.33-8.65-5.08,.59-8.23,4.67-8.43,10.93-.04,1.27,0,2.54,0,3.81Z"/></svg>