<svg xmlns="http://www.w3.org/2000/svg" width="60" height="60" viewBox="0 0 60 60"><rect width="60" height="60" fill="#b6274f"/><g transform="translate(13 13)"><path d="M17.5,0c-4.753,0-5.349.02-7.215.105A12.847,12.847,0,0,0,6.037.919a8.578,8.578,0,0,0-3.1,2.019,8.577,8.577,0,0,0-2.019,3.1,12.846,12.846,0,0,0-.813,4.248C.02,12.151,0,12.747,0,17.5s.02,5.349.105,7.215a12.846,12.846,0,0,0,.813,4.248,8.579,8.579,0,0,0,2.019,3.1,8.579,8.579,0,0,0,3.1,2.019,12.848,12.848,0,0,0,4.248.813c1.867.085,2.463.105,7.215.105s5.349-.02,7.215-.105a12.846,12.846,0,0,0,4.248-.813,8.948,8.948,0,0,0,5.118-5.118,12.846,12.846,0,0,0,.813-4.248C34.98,22.849,35,22.253,35,17.5s-.02-5.349-.105-7.215a12.846,12.846,0,0,0-.813-4.248,8.578,8.578,0,0,0-2.019-3.1,8.579,8.579,0,0,0-3.1-2.019A12.846,12.846,0,0,0,24.715.105C22.849.02,22.253,0,17.5,0Zm0,3.153c4.673,0,5.226.018,7.071.1a9.681,9.681,0,0,1,3.249.6,5.422,5.422,0,0,1,2.012,1.309,5.422,5.422,0,0,1,1.309,2.012,9.682,9.682,0,0,1,.6,3.25c.084,1.845.1,2.4.1,7.072s-.018,5.226-.1,7.072a9.681,9.681,0,0,1-.6,3.249,5.8,5.8,0,0,1-3.321,3.321,9.682,9.682,0,0,1-3.25.6c-1.845.084-2.4.1-7.072.1s-5.226-.018-7.072-.1a9.68,9.68,0,0,1-3.249-.6,5.421,5.421,0,0,1-2.012-1.309,5.422,5.422,0,0,1-1.309-2.012,9.683,9.683,0,0,1-.6-3.25c-.084-1.845-.1-2.4-.1-7.072s.018-5.226.1-7.072a9.682,9.682,0,0,1,.6-3.249A5.422,5.422,0,0,1,5.167,5.167,5.422,5.422,0,0,1,7.179,3.858a9.682,9.682,0,0,1,3.25-.6c1.845-.084,2.4-.1,7.072-.1" fill="#fff"/><path d="M17.5,23.333A5.833,5.833,0,1,1,23.333,17.5,5.833,5.833,0,0,1,17.5,23.333Zm0-14.82A8.986,8.986,0,1,0,26.486,17.5,8.986,8.986,0,0,0,17.5,8.514m11.442-.355a2.1,2.1,0,1,1-2.1-2.1,2.1,2.1,0,0,1,2.1,2.1" fill="#fff"/></g></svg>