<?xml version="1.0" encoding="UTF-8"?><svg xmlns="http://www.w3.org/2000/svg" viewBox="0 0 512 512"><defs><style>.cls-1{fill:#707173;}</style></defs><g id="BG"><path class="cls-1" d="M481.71,30.29V481.71H30.29V30.29H481.71m20.29-20.29H10V502H502V10h0Z"/></g><g id="Text"><path class="cls-1" d="M212.73,314.58v101.42h-64.66V120.29c14.75,0,30.73-.38,46.66,.37,2.66,.13,6.31,4.76,7.37,8.01,1.96,6.03,2.35,12.56,3.72,20.92,15.29-17.42,31.77-29.3,53.48-32.42,43.54-6.27,78.12,12.79,95.33,56.64,13.4,34.15,11.78,69.29-1.38,104.01-19.24,50.77-87.65,79.56-140.53,36.77Zm.38-87.08h.1c0,5.21-.15,10.42,.02,15.62,.81,24.7,12.57,39.93,32.95,42.81,22.46,3.17,42.04-8.92,47.06-33.16,3.35-16.19,3.8-33.99,.86-50.23-4.69-25.96-22.97-38.17-46.43-35.47-20.82,2.4-33.76,19.14-34.54,44.8-.16,5.2-.02,10.42-.02,15.62Z"/></g></svg>