<?xml version="1.0" encoding="UTF-8"?><svg id="Text" xmlns="http://www.w3.org/2000/svg" viewBox="0 0 192 192"><path d="M176.93,15.07V176.93H15.07V15.07H176.93m7.27-7.27H7.8V184.2H184.2V7.8h0Z" fill="#b6274f"/><path d="M80.48,117v36.36h-23.18V47.34c5.29,0,11.02-.14,16.73,.13,.95,.05,2.26,1.71,2.64,2.87,.7,2.16,.84,4.5,1.33,7.5,5.48-6.25,11.39-10.5,19.17-11.62,15.61-2.25,28.01,4.58,34.18,20.31,4.81,12.25,4.22,24.84-.49,37.29-6.9,18.2-31.42,28.52-50.38,13.18Zm.14-31.22s.02,0,.04,0c0,1.87-.05,3.74,0,5.6,.29,8.86,4.51,14.32,11.81,15.35,8.05,1.14,15.07-3.2,16.87-11.89,1.2-5.8,1.36-12.19,.31-18.01-1.68-9.31-8.23-13.69-16.65-12.72-7.46,.86-12.11,6.86-12.39,16.06-.06,1.87,0,3.73,0,5.6Z" fill="#b6274f"/></svg>